<svg width="87" height="29" viewBox="0 0 87 29" fill="none" xmlns="http://www.w3.org/2000/svg">
<path d="M86.44 24.633C86.4401 25.1334 86.3417 25.6289 86.1502 26.0912C85.9588 26.5535 85.6782 26.9736 85.3244 27.3274C84.9706 27.6812 84.5505 27.9618 84.0882 28.1532C83.6259 28.3447 83.1304 28.4431 82.63 28.443H4.06C3.55963 28.4431 3.06413 28.3447 2.60182 28.1532C2.13951 27.9618 1.71945 27.6812 1.36563 27.3274C1.01181 26.9736 0.731175 26.5535 0.539751 26.0912C0.348328 25.6289 0.249869 25.1334 0.25 24.633V4.06C0.250265 3.04961 0.65176 2.08067 1.36622 1.36622C2.08067 0.65176 3.04961 0.250265 4.06 0.25L82.63 0.25C83.6404 0.250265 84.6093 0.65176 85.3238 1.36622C86.0382 2.08067 86.4397 3.04961 86.44 4.06V24.633Z" fill="black" stroke="#CCCCD1" stroke-width="0.5"/>
<path d="M22.726 18.8861C22.382 19.7102 21.9594 20.4992 21.464 21.2421C20.6449 22.4891 19.488 24.0421 18.057 24.0571C16.785 24.0691 16.457 23.2291 14.731 23.2391C13.005 23.2491 12.644 24.0721 11.372 24.0601C9.94095 24.0471 8.84595 22.6441 8.02695 21.3951C5.73395 17.9061 5.49595 13.8101 6.90895 11.6351C7.33641 10.9239 7.93183 10.3285 8.643 9.90097C9.35416 9.47347 10.1593 9.22698 10.988 9.18311C12.505 9.18311 13.459 10.0161 14.713 10.0161C15.931 10.0161 16.672 9.18311 18.425 9.18311C19.1538 9.21628 19.8664 9.41018 20.5115 9.75093C21.1567 10.0917 21.7186 10.5708 22.157 11.1541C21.4434 11.5492 20.858 12.1404 20.4699 12.8578C20.0818 13.5752 19.9074 14.3888 19.9673 15.2022C20.0271 16.0156 20.3188 16.7949 20.8077 17.4477C21.2966 18.1006 21.9622 18.5997 22.726 18.8861Z" fill="white"/>
<path d="M17.098 7.78681C17.4574 7.35037 17.7261 6.84662 17.8884 6.30504C18.0506 5.76347 18.1032 5.19496 18.043 4.63281C16.8861 4.77078 15.8247 5.3426 15.073 6.23281C14.7042 6.64745 14.4267 7.1351 14.2587 7.66403C14.0907 8.19296 14.036 8.75133 14.098 9.30281C14.6798 9.29137 15.2515 9.14917 15.7708 8.88674C16.2901 8.62431 16.7437 8.24838 17.098 7.78681Z" fill="white"/>
<path d="M29.71 11.582L26.426 21.247H27.926L28.906 18.28H32.086L33.094 21.247H34.639L31.339 11.582H29.71ZM30.488 13.171C30.599 13.602 30.719 14.05 30.873 14.534L31.759 17.096H29.241L30.113 14.517C30.246 14.1 30.371 13.649 30.486 13.171H30.488Z" fill="white"/>
<path d="M38.89 14.088C38.4409 14.0686 37.9939 14.1602 37.5885 14.3547C37.1832 14.5491 36.832 14.8405 36.5661 15.203L36.508 14.242H35.17L35.1781 14.364C35.2181 14.964 35.2341 15.623 35.2341 16.564V24.013H36.7V20.541C36.9501 20.822 37.2588 21.0446 37.6044 21.1931C37.9501 21.3415 38.3241 21.4122 38.7 21.4C39.1141 21.4034 39.5245 21.3215 39.9056 21.1595C40.2866 20.9974 40.6303 20.7586 40.9151 20.458C41.591 19.6812 41.9413 18.6736 41.8931 17.645C41.9257 16.7148 41.6245 15.8036 41.0441 15.076C40.7797 14.7631 40.4496 14.5123 40.0773 14.3416C39.705 14.1708 39.2996 14.0842 38.89 14.088ZM38.5271 15.299C39.8271 15.299 40.414 16.507 40.414 17.699C40.414 19.242 39.6691 20.199 38.4711 20.199C38.0734 20.1988 37.6874 20.065 37.375 19.8191C37.0625 19.5732 36.8417 19.2294 36.748 18.843C36.7105 18.6879 36.6933 18.5285 36.6971 18.369V17.199C36.7021 17.0779 36.7175 16.9575 36.743 16.839C36.75 16.799 36.7581 16.76 36.7641 16.72C36.8592 16.3214 37.0839 15.9656 37.4029 15.7085C37.722 15.4513 38.1173 15.3073 38.5271 15.299Z" fill="white"/>
<path d="M46.421 14.088C45.9719 14.0686 45.5249 14.1602 45.1195 14.3547C44.7142 14.5491 44.363 14.8405 44.097 15.203L44.039 14.242H42.702L42.709 14.364C42.749 14.964 42.765 15.623 42.765 16.564V24.013H44.227V20.541C44.4771 20.822 44.7859 21.0445 45.1315 21.193C45.4771 21.3414 45.8511 21.4121 46.227 21.4C46.6414 21.4033 47.052 21.3213 47.4334 21.1593C47.8148 20.9972 48.1588 20.7585 48.444 20.458C49.12 19.6812 49.4703 18.6736 49.422 17.645C49.4551 16.7144 49.1531 15.8028 48.571 15.076C48.3071 14.7636 47.9777 14.5132 47.6061 14.3424C47.2346 14.1717 46.8299 14.0848 46.421 14.088ZM46.058 15.299C47.358 15.299 47.945 16.507 47.945 17.699C47.945 19.242 47.2 20.199 46.002 20.199C45.6044 20.1989 45.2183 20.0652 44.9058 19.8193C44.5933 19.5733 44.3725 19.2295 44.279 18.843C44.2414 18.6879 44.2243 18.5285 44.228 18.369V17.199C44.2331 17.0772 44.2485 16.9561 44.274 16.837C44.281 16.797 44.289 16.758 44.295 16.72C44.3901 16.3216 44.6146 15.9659 44.9335 15.7088C45.2524 15.4516 45.6475 15.3075 46.057 15.299H46.058Z" fill="white"/>
<path d="M55.856 15.6768C54.491 15.1478 54.056 14.7338 54.056 13.9648C54.056 13.3188 54.57 12.6648 55.718 12.6648C56.3188 12.6502 56.9123 12.7992 57.435 13.0958L57.559 13.1718L57.972 11.9508L57.891 11.9028C57.2348 11.5605 56.5004 11.396 55.761 11.4258C53.896 11.4258 52.594 12.5258 52.594 14.1018C52.594 15.3718 53.4099 16.2608 55.1609 16.9018C56.4019 17.3658 56.861 17.8398 56.861 18.6548C56.861 19.5768 56.149 20.1478 55.002 20.1478C54.2571 20.148 53.5271 19.9402 52.894 19.5478L52.765 19.4678L52.3719 20.7168L52.4449 20.7648C53.2002 21.1867 54.0519 21.4058 54.917 21.4008C57.43 21.4008 58.317 19.8678 58.317 18.5558C58.322 17.2038 57.607 16.3678 55.856 15.6768Z" fill="white"/>
<path d="M60.954 12.5762L59.52 13.0272V14.2412H58.469V15.4092H59.52V18.9892C59.4589 19.6483 59.6387 20.3073 60.026 20.8442C60.2099 21.0303 60.4307 21.1758 60.6743 21.2714C60.9178 21.3669 61.1786 21.4105 61.44 21.3992C61.8238 21.4048 62.2059 21.3456 62.57 21.2242L62.653 21.1942L62.584 20.0232L62.444 20.0662C62.2225 20.1276 61.9927 20.1542 61.763 20.1452C61.196 20.1452 60.955 19.7862 60.955 18.9452V15.4112H62.719V14.2432H60.955L60.954 12.5762Z" fill="white"/>
<path d="M66.341 14.0879C65.8627 14.0821 65.3884 14.1761 64.9485 14.3637C64.5085 14.5514 64.1125 14.8287 63.7856 15.178C63.4588 15.5272 63.2083 15.9407 63.0501 16.3922C62.892 16.8436 62.8296 17.323 62.867 17.7999C62.8306 18.2619 62.8908 18.7265 63.0438 19.1641C63.1969 19.6016 63.4393 20.0024 63.7558 20.3411C64.0722 20.6797 64.4558 20.9488 64.8819 21.1311C65.3081 21.3134 65.7675 21.4049 66.231 21.3999H66.244C66.7234 21.4051 67.1987 21.3102 67.6394 21.1213C68.0801 20.9325 68.4766 20.6538 68.8035 20.3031C69.1305 19.9523 69.3806 19.5373 69.5381 19.0844C69.6956 18.6315 69.7568 18.1508 69.718 17.6729C69.7512 16.7228 69.4175 15.7965 68.786 15.0859C68.4707 14.7581 68.0902 14.4999 67.6691 14.328C67.248 14.1561 66.7956 14.0743 66.341 14.0879ZM66.3 15.2429C67.615 15.2429 68.215 16.5249 68.215 17.7179C68.215 19.1829 67.397 20.2469 66.272 20.2469H66.257C65.148 20.2469 64.342 19.2009 64.342 17.7589C64.347 16.5069 64.947 15.2429 66.3 15.2429Z" fill="white"/>
<path d="M74.198 14.1559L74.11 14.1349C73.9914 14.1042 73.8694 14.0887 73.747 14.0889C73.3624 14.0971 72.9876 14.2115 72.664 14.4194C72.3403 14.6273 72.0804 14.9206 71.913 15.2669L71.87 14.2439H70.558L70.566 14.3659C70.606 14.9439 70.621 15.5949 70.621 16.4719L70.608 21.2499H72.07V17.5229C72.069 17.3331 72.0824 17.1436 72.11 16.9559C72.1438 16.5654 72.3185 16.2005 72.6015 15.9293C72.8844 15.6581 73.2564 15.4991 73.648 15.4819C73.7793 15.4828 73.9106 15.4912 74.041 15.5069L74.198 15.5239V14.1559Z" fill="white"/>
<path d="M77.489 14.0752C75.543 14.0752 74.183 15.6302 74.183 17.8582C74.1451 18.3242 74.2075 18.7929 74.3661 19.2327C74.5247 19.6725 74.7757 20.0732 75.1023 20.4078C75.4289 20.7423 75.8235 21.0029 76.2593 21.1721C76.6952 21.3412 77.1623 21.4149 77.629 21.3882C78.4235 21.4063 79.2127 21.255 79.944 20.9442L80.032 20.9042L79.751 19.8142L79.629 19.8642C79.0475 20.0987 78.4237 20.21 77.797 20.1912C77.5096 20.2139 77.2206 20.1752 76.9493 20.0777C76.6779 19.9802 76.4304 19.826 76.2232 19.6255C76.016 19.425 75.8538 19.1827 75.7474 18.9148C75.641 18.6468 75.5928 18.3592 75.606 18.0712L80.326 18.0862L80.346 17.9922C80.3803 17.7907 80.3953 17.5865 80.391 17.3822C80.389 15.8562 79.626 14.0752 77.489 14.0752ZM77.389 15.1872C77.5866 15.1781 77.784 15.2098 77.9687 15.2804C78.1535 15.3509 78.3218 15.4588 78.463 15.5972C78.7874 15.9763 78.9648 16.4593 78.963 16.9582H75.627C75.6503 16.4976 75.8431 16.0618 76.1684 15.7348C76.4937 15.4078 76.9285 15.2128 77.389 15.1872Z" fill="white"/>
<path d="M26.426 4.9788C26.8901 4.91662 27.3578 4.88522 27.826 4.8848C28.5568 4.82539 29.2852 5.02466 29.884 5.4478C30.1252 5.6469 30.3164 5.89981 30.4421 6.1862C30.5679 6.47258 30.6247 6.78447 30.608 7.0968C30.6206 7.42831 30.5617 7.75866 30.4354 8.06543C30.3091 8.3722 30.1184 8.64823 29.876 8.8748C29.2269 9.35615 28.4272 9.58985 27.621 9.5338C27.2203 9.53935 26.8196 9.52099 26.421 9.4788V4.9788H26.426ZM27.09 9.0318C27.3105 9.05565 27.5323 9.06433 27.754 9.0578C29.154 9.0648 29.918 8.3528 29.918 7.1168C29.926 6.0248 29.247 5.3528 27.86 5.3528C27.602 5.34956 27.3443 5.36998 27.09 5.4138V9.0318Z" fill="white"/>
<path d="M32.9631 9.56803C32.7346 9.58228 32.5057 9.5488 32.291 9.46972C32.0762 9.39063 31.8802 9.26768 31.7156 9.10869C31.551 8.9497 31.4213 8.75816 31.3348 8.54628C31.2482 8.3344 31.2068 8.10682 31.2131 7.87803C31.2054 7.6413 31.2474 7.4056 31.3365 7.18612C31.4255 6.96665 31.5596 6.76829 31.7301 6.60385C31.9005 6.43941 32.1036 6.31255 32.3261 6.23146C32.5487 6.15036 32.7858 6.11683 33.0221 6.13303C33.2509 6.1158 33.4809 6.14693 33.697 6.22439C33.913 6.30186 34.1104 6.42392 34.2762 6.58266C34.442 6.74139 34.5726 6.93324 34.6594 7.14573C34.7462 7.35823 34.7873 7.58661 34.7801 7.81603C34.7877 8.05301 34.7456 8.28896 34.6566 8.50872C34.5676 8.72848 34.4336 8.92719 34.2633 9.09209C34.0929 9.25699 33.8899 9.38443 33.6674 9.46623C33.4449 9.54802 33.2076 9.58236 32.971 9.56703L32.9631 9.56803ZM32.986 9.12003C33.1444 9.11265 33.2997 9.07313 33.4423 9.00386C33.585 8.93459 33.712 8.83702 33.8158 8.7171C33.9195 8.59718 33.9978 8.4574 34.0458 8.30628C34.0938 8.15516 34.1106 7.99584 34.0951 7.83803C34.0633 7.62735 33.972 7.43014 33.8318 7.26972C33.6916 7.10929 33.5084 6.99235 33.3038 6.93272C33.0993 6.87308 32.882 6.87325 32.6775 6.93319C32.473 6.99314 32.29 7.11035 32.1501 7.27099C32.0101 7.43163 31.919 7.62898 31.8877 7.83971C31.8563 8.05045 31.8859 8.26576 31.9729 8.46021C32.06 8.65467 32.2009 8.82013 32.379 8.93705C32.5571 9.05398 32.765 9.11747 32.978 9.12003H32.986Z" fill="white"/>
<path d="M35.83 6.20901L36.321 7.87301C36.421 8.24001 36.521 8.58501 36.585 8.92501H36.608C36.691 8.59301 36.808 8.23901 36.932 7.87901L37.532 6.20901H38.09L38.655 7.85101C38.79 8.23801 38.896 8.59101 38.979 8.92301H39.002C39.0737 8.56245 39.1669 8.20648 39.281 7.85701L39.801 6.20801H40.457L39.283 9.49301H38.683L38.125 7.92501C37.9971 7.56959 37.8889 7.20737 37.801 6.84001H37.783C37.6956 7.21068 37.5847 7.57542 37.451 7.93201L36.863 9.49301H36.263L35.163 6.20901H35.83Z" fill="white"/>
<path d="M41.118 7.09702C41.118 6.75002 41.11 6.47902 41.088 6.20802H41.676L41.714 6.74502H41.729C41.8609 6.54848 42.0411 6.38909 42.2523 6.28211C42.4634 6.17513 42.6985 6.12414 42.935 6.13402C43.116 6.12673 43.2963 6.15887 43.4636 6.22823C43.6309 6.29758 43.7811 6.40247 43.9038 6.53565C44.0265 6.66883 44.1188 6.8271 44.1743 6.99949C44.2297 7.17188 44.247 7.35427 44.225 7.53402V9.49502H43.562V7.59902C43.562 7.07002 43.342 6.62302 42.718 6.62302C42.5251 6.62208 42.3365 6.68009 42.1774 6.78928C42.0184 6.89848 41.8965 7.05364 41.828 7.23402C41.797 7.32337 41.7818 7.41744 41.783 7.51202V9.49402H41.119V7.09402L41.118 7.09702Z" fill="white"/>
<path d="M45.302 4.67383H45.966V9.49383H45.302V4.67383Z" fill="white"/>
<path d="M48.554 9.56788C48.3256 9.58198 48.0968 9.54839 47.8821 9.46925C47.6674 9.39011 47.4715 9.26715 47.3069 9.10819C47.1423 8.94924 47.0126 8.75776 46.926 8.54595C46.8394 8.33414 46.7979 8.10663 46.804 7.87788C46.7963 7.64107 46.8384 7.40526 46.9275 7.18572C47.0166 6.96617 47.1508 6.76776 47.3214 6.60331C47.4919 6.43886 47.6951 6.31201 47.9178 6.23098C48.1404 6.14995 48.3776 6.11653 48.614 6.13288C48.8427 6.11595 49.0724 6.1473 49.2883 6.22489C49.5041 6.30249 49.7012 6.4246 49.8668 6.5833C50.0324 6.742 50.1628 6.93375 50.2495 7.1461C50.3361 7.35844 50.3772 7.58664 50.37 7.81588C50.3776 8.05304 50.3355 8.28917 50.2464 8.50907C50.1573 8.72898 50.0231 8.9278 49.8525 9.09273C49.6819 9.25766 49.4787 9.38505 49.2559 9.46672C49.0331 9.54838 48.7958 9.5825 48.559 9.56688L48.554 9.56788ZM48.577 9.11988C48.7354 9.1125 48.8906 9.07298 49.0333 9.00371C49.1759 8.93444 49.3029 8.83687 49.4067 8.71695C49.5104 8.59703 49.5887 8.45725 49.6367 8.30613C49.6847 8.15501 49.7015 7.99569 49.686 7.83788C49.6543 7.6272 49.5629 7.42999 49.4227 7.26957C49.2825 7.10914 49.0993 6.9922 48.8948 6.93257C48.6902 6.87293 48.4729 6.8731 48.2684 6.93304C48.064 6.99299 47.881 7.1102 47.741 7.27084C47.601 7.43148 47.51 7.62883 47.4786 7.83956C47.4472 8.0503 47.4768 8.26561 47.5639 8.46006C47.651 8.65452 47.7919 8.81998 47.97 8.9369C48.1481 9.05383 48.3559 9.11732 48.569 9.11988H48.577Z" fill="white"/>
<path d="M53.781 8.70503C53.7776 8.96802 53.7953 9.23087 53.834 9.49103H53.234L53.173 9.07803H53.152C53.0145 9.23821 52.8427 9.36536 52.6493 9.45002C52.4559 9.53467 52.2459 9.57467 52.035 9.56703C51.8988 9.58324 51.7608 9.57129 51.6295 9.53191C51.4982 9.49254 51.3764 9.42659 51.2716 9.33815C51.1669 9.24972 51.0814 9.14069 51.0206 9.01784C50.9598 8.89499 50.9248 8.76095 50.918 8.62403C50.918 7.82903 51.703 7.39503 53.112 7.40303V7.33503C53.112 7.06403 53.029 6.56803 52.283 6.57503C51.9476 6.57071 51.6171 6.65524 51.325 6.82003L51.175 6.42002C51.5475 6.2275 51.9616 6.1293 52.381 6.13403C52.566 6.10637 52.7548 6.12159 52.933 6.1785C53.1112 6.23542 53.2739 6.33252 53.4086 6.4623C53.5433 6.59207 53.6464 6.75107 53.71 6.92701C53.7735 7.10294 53.7957 7.29113 53.775 7.47703V8.70402L53.781 8.70503ZM53.132 7.81602C52.408 7.80302 51.586 7.91603 51.586 8.55603C51.5831 8.63582 51.5976 8.71529 51.6283 8.78899C51.659 8.86269 51.7053 8.92887 51.764 8.98301C51.8227 9.03714 51.8924 9.07795 51.9684 9.10264C52.0443 9.12732 52.1247 9.1353 52.204 9.12603C52.3923 9.13784 52.5797 9.0914 52.7407 8.993C52.9017 8.8946 53.0286 8.74901 53.104 8.57603C53.1252 8.51498 53.1353 8.45064 53.134 8.38603V7.81403L53.132 7.81602Z" fill="white"/>
<path d="M57.995 4.67383V8.64383C57.995 8.93583 58.003 9.26783 58.025 9.49283H57.4249L57.3949 8.92283H57.38C57.2507 9.13146 57.0676 9.30139 56.8499 9.41473C56.6322 9.52806 56.388 9.5806 56.143 9.56683C55.928 9.56718 55.7153 9.52332 55.5181 9.43797C55.3208 9.35261 55.1432 9.22759 54.9964 9.07068C54.8495 8.91377 54.7364 8.72832 54.6643 8.52586C54.5921 8.3234 54.5624 8.10826 54.577 7.89383C54.5594 7.66842 54.5888 7.44182 54.6631 7.22831C54.7375 7.0148 54.8553 6.81901 55.0091 6.65329C55.1629 6.48756 55.3494 6.35549 55.5567 6.2654C55.7641 6.17531 55.9879 6.12915 56.2139 6.12983C56.4246 6.11396 56.6358 6.15146 56.828 6.23886C57.0203 6.32625 57.1874 6.46072 57.314 6.62983H57.329V4.67383H57.995ZM57.333 7.54483C57.3344 7.45788 57.3243 7.37112 57.303 7.28683C57.2424 7.08219 57.1153 6.9036 56.9417 6.77935C56.7682 6.65509 56.5582 6.59227 56.345 6.60083C56.1876 6.60399 56.0326 6.64015 55.8901 6.70696C55.7475 6.77377 55.6206 6.86976 55.5175 6.9887C55.4144 7.10765 55.3374 7.24691 55.2915 7.39748C55.2456 7.54805 55.2318 7.70659 55.251 7.86283C55.2323 8.01568 55.2463 8.17075 55.2919 8.31781C55.3376 8.46487 55.4139 8.60057 55.5159 8.71595C55.6179 8.83134 55.7432 8.92379 55.8835 8.9872C56.0238 9.05062 56.176 9.08355 56.3299 9.08383C56.548 9.08918 56.7616 9.02224 56.9376 8.89345C57.1136 8.76466 57.2421 8.58126 57.303 8.37183C57.3251 8.28768 57.3352 8.20081 57.333 8.11383V7.54483Z" fill="white"/>
<path d="M62.182 9.56803C61.9536 9.58213 61.7248 9.54854 61.5101 9.4694C61.2954 9.39026 61.0995 9.2673 60.9349 9.10834C60.7703 8.94939 60.6406 8.75791 60.554 8.5461C60.4674 8.33429 60.4258 8.10678 60.432 7.87803C60.4252 7.64137 60.4679 7.40591 60.5574 7.18672C60.6469 6.96753 60.7812 6.76946 60.9517 6.60518C61.1222 6.4409 61.3251 6.31405 61.5475 6.23274C61.7698 6.15144 62.0067 6.11748 62.243 6.13303C62.4719 6.1158 62.7018 6.14693 62.9179 6.22439C63.134 6.30186 63.3313 6.42392 63.4971 6.58266C63.6629 6.74139 63.7935 6.93324 63.8803 7.14573C63.9671 7.35823 64.0082 7.58661 64.001 7.81603C64.0086 8.05301 63.9665 8.28896 63.8775 8.50872C63.7885 8.72848 63.6545 8.92719 63.4842 9.09209C63.3138 9.25699 63.1108 9.38443 62.8883 9.46623C62.6658 9.54802 62.4286 9.58236 62.192 9.56703L62.182 9.56803ZM62.205 9.12003C62.3634 9.11265 62.5186 9.07313 62.6612 9.00386C62.8039 8.93459 62.9309 8.83702 63.0347 8.7171C63.1384 8.59718 63.2167 8.4574 63.2647 8.30628C63.3127 8.15516 63.3295 7.99584 63.314 7.83803C63.2823 7.62735 63.1909 7.43014 63.0507 7.26972C62.9105 7.10929 62.7273 6.99235 62.5228 6.93272C62.3182 6.87308 62.1009 6.87325 61.8964 6.93319C61.692 6.99314 61.5089 7.11035 61.369 7.27099C61.229 7.43163 61.1379 7.62898 61.1066 7.83971C61.0752 8.05045 61.1048 8.26576 61.1919 8.46021C61.2789 8.65467 61.4198 8.82013 61.598 8.93705C61.7761 9.05398 61.9839 9.11747 62.197 9.12003H62.205Z" fill="white"/>
<path d="M64.836 7.09702C64.836 6.75002 64.828 6.47902 64.806 6.20802H65.394L65.432 6.74502H65.447C65.5789 6.54848 65.7591 6.38909 65.9703 6.28211C66.1814 6.17513 66.4165 6.12414 66.653 6.13402C66.834 6.12673 67.0143 6.15887 67.1816 6.22823C67.3489 6.29758 67.4991 6.40247 67.6218 6.53565C67.7445 6.66883 67.8368 6.8271 67.8923 6.99949C67.9478 7.17188 67.9651 7.35427 67.943 7.53402V9.49502H67.279V7.59902C67.279 7.07002 67.061 6.62302 66.435 6.62302C66.2419 6.62188 66.0531 6.67979 65.8938 6.789C65.7346 6.8982 65.6125 7.05348 65.544 7.23402C65.513 7.32338 65.4978 7.41745 65.499 7.51202V9.49402H64.835L64.836 7.09702Z" fill="white"/>
<path d="M71.419 5.4209V6.2069H72.369V6.6609H71.419V8.4319C71.419 8.8379 71.548 9.0699 71.919 9.0699C72.0486 9.0749 72.1783 9.06109 72.304 9.0289L72.334 9.4829C72.1432 9.53928 71.945 9.56658 71.746 9.5639C71.4834 9.57673 71.2263 9.48669 71.029 9.3129C70.8343 9.07006 70.7424 8.76065 70.773 8.4509V6.6629H70.208V6.2089H70.773V5.6089L71.419 5.4209Z" fill="white"/>
<path d="M73.1169 4.67383H73.7809V6.72383H73.7959C73.9111 6.54089 74.0763 6.39479 74.2719 6.30283C74.4802 6.18958 74.7139 6.13109 74.9509 6.13283C75.1306 6.12774 75.3093 6.16151 75.4747 6.23185C75.6401 6.30219 75.7884 6.40743 75.9093 6.54037C76.0303 6.67331 76.1211 6.83081 76.1756 7.0021C76.2301 7.17339 76.2469 7.35443 76.2249 7.53283V9.49383H75.5649V7.60583C75.5649 7.06883 75.3469 6.62783 74.7209 6.62783C74.5295 6.627 74.3423 6.68378 74.1836 6.79079C74.0248 6.89779 73.902 7.05007 73.8309 7.22783C73.7944 7.31851 73.7787 7.41625 73.7849 7.51383V9.49383H73.1209V4.67383H73.1169Z" fill="white"/>
<path d="M77.68 7.95595C77.6748 8.11611 77.7043 8.27551 77.7664 8.42321C77.8286 8.57091 77.9219 8.70344 78.0401 8.8117C78.1582 8.91997 78.2984 9.00142 78.4509 9.05048C78.6035 9.09955 78.7648 9.11505 78.9239 9.09595C79.2683 9.10531 79.6112 9.04967 79.9349 8.93195L80.0559 9.35295C79.6655 9.50082 79.2503 9.57212 78.8329 9.56295C78.6026 9.58896 78.3693 9.56519 78.1489 9.49326C77.9285 9.42132 77.7261 9.30289 77.5555 9.14597C77.3848 8.98906 77.2498 8.79732 77.1597 8.58373C77.0695 8.37015 77.0263 8.13969 77.033 7.90795C77.0181 7.67553 77.0519 7.44256 77.1323 7.22398C77.2127 7.0054 77.3379 6.80603 77.4998 6.63864C77.6617 6.47125 77.8569 6.33953 78.0727 6.25194C78.2885 6.16434 78.5202 6.12279 78.753 6.12995C78.9566 6.12055 79.1599 6.15454 79.3493 6.22967C79.5388 6.3048 79.7101 6.41936 79.852 6.56574C79.9938 6.71212 80.1029 6.88698 80.1721 7.07873C80.2412 7.27048 80.2688 7.47473 80.253 7.67795C80.2556 7.77308 80.2485 7.86823 80.2319 7.96195L77.68 7.95595ZM79.6199 7.52995C79.6328 7.40412 79.6185 7.27701 79.5779 7.15721C79.5373 7.03742 79.4715 6.92775 79.3848 6.83566C79.2981 6.74356 79.1926 6.67118 79.0755 6.62344C78.9583 6.5757 78.8323 6.5537 78.706 6.55895C78.445 6.56227 78.1949 6.66424 78.0061 6.84437C77.8173 7.0245 77.7036 7.26944 77.688 7.52995H79.6199Z" fill="white"/>
</svg>
