<svg width="88" height="29" viewBox="0 0 88 29" fill="none" xmlns="http://www.w3.org/2000/svg">
<path d="M87.196 24.85C87.1957 25.3548 87.096 25.8545 86.9026 26.3207C86.7092 26.787 86.4258 27.2105 86.0686 27.5672C85.7115 27.9239 85.2876 28.2067 84.8211 28.3995C84.3546 28.5923 83.8548 28.6914 83.35 28.691H4.093C3.07412 28.691 2.09694 28.2864 1.3763 27.5661C0.655651 26.8458 0.25053 25.8689 0.25 24.85L0.25 4.093C0.250265 3.07385 0.655237 2.09653 1.37588 1.37588C2.09653 0.655237 3.07385 0.250265 4.093 0.25H83.35C84.3691 0.25053 85.3462 0.655586 86.0668 1.37617C86.7874 2.09676 87.1925 3.07394 87.193 4.093L87.196 24.85Z" fill="black" stroke="#CCCCD1" stroke-width="0.5"/>
<path d="M6.771 5.7251V24.9851L16.484 15.3551L6.771 5.7251Z" fill="url(#paint0_linear)"/>
<path d="M19.092 12.7698L15.172 10.5058L6.77197 5.65576V5.72576L16.485 15.3558L19.092 12.7698Z" fill="url(#paint1_linear)"/>
<path d="M6.771 24.985V25.056L15.171 20.204L19.091 17.941L16.484 15.355L6.771 24.985Z" fill="url(#paint2_linear)"/>
<path d="M19.092 12.77L16.484 15.356L19.092 17.943L23.573 15.356L19.092 12.77Z" fill="url(#paint3_linear)"/>
<path d="M67.917 19.12C67.5732 19.1248 67.2324 19.0566 66.917 18.92C66.6137 18.7834 66.3517 18.5696 66.157 18.3H66.0959C66.1355 18.6084 66.1559 18.919 66.157 19.23V21.535H65.309V13.417H65.999L66.116 14.184H66.157C66.3489 13.8999 66.6115 13.6708 66.9189 13.519C67.2333 13.3789 67.5749 13.3106 67.9189 13.319C68.2454 13.3012 68.5715 13.361 68.8705 13.4934C69.1694 13.6259 69.4328 13.8272 69.6389 14.081C70.0363 14.7245 70.2459 15.4662 70.2441 16.2224C70.2423 16.9787 70.0293 17.7194 69.629 18.361C69.4232 18.613 69.161 18.813 68.8636 18.9448C68.5661 19.0767 68.2419 19.1367 67.917 19.12ZM67.795 14.036C67.5654 14.0146 67.3341 14.0465 67.1189 14.129C66.9036 14.2116 66.7103 14.3426 66.554 14.512C66.2608 14.9597 66.1224 15.4911 66.16 16.025V16.214C66.109 16.8048 66.247 17.3966 66.554 17.904C66.7093 18.082 66.9045 18.2208 67.1236 18.309C67.3427 18.3973 67.5796 18.4326 67.815 18.412C68.039 18.4194 68.2611 18.3693 68.4602 18.2663C68.6592 18.1634 68.8286 18.0111 68.952 17.824C69.2513 17.3387 69.3948 16.7733 69.3629 16.204C69.3988 15.6381 69.255 15.0753 68.952 14.596C68.8206 14.4139 68.6459 14.2673 68.4438 14.1696C68.2416 14.0718 68.0183 14.0259 67.7939 14.036H67.795Z" fill="#F9F9F9"/>
<path d="M72.205 19.0179H71.3569V11.0659H72.205V19.0179Z" fill="#F9F9F9"/>
<path d="M77.084 19.018L76.916 18.218H76.875C76.6571 18.5186 76.3704 18.7627 76.039 18.93C75.7092 19.0643 75.3549 19.128 74.999 19.117C74.5248 19.1454 74.0576 18.9916 73.693 18.687C73.5308 18.5296 73.4045 18.339 73.3228 18.1283C73.2412 17.9175 73.2061 17.6916 73.22 17.466C73.22 16.3327 74.1243 15.74 75.933 15.688L76.883 15.657V15.31C76.9113 14.9615 76.8102 14.6147 76.599 14.336C76.4786 14.2223 76.3353 14.1355 76.1788 14.0813C76.0222 14.0272 75.8559 14.007 75.691 14.022C75.1373 14.0443 74.5959 14.1913 74.107 14.452L73.847 13.803C74.1342 13.6491 74.4391 13.5309 74.755 13.451C75.0779 13.3669 75.4103 13.3242 75.744 13.324C76.277 13.2803 76.807 13.4392 77.228 13.769C77.4036 13.9598 77.5372 14.1853 77.6204 14.4309C77.7036 14.6765 77.7344 14.9368 77.711 15.195V19.018H77.084ZM75.166 18.418C75.6216 18.4439 76.0689 18.2882 76.41 17.985C76.5657 17.8247 76.6864 17.6336 76.7642 17.4241C76.842 17.2146 76.8753 16.9911 76.862 16.768V16.261L76.014 16.297C75.5093 16.2806 75.0083 16.3885 74.555 16.611C74.409 16.7015 74.2903 16.83 74.2116 16.9827C74.1329 17.1354 74.0971 17.3066 74.108 17.478C74.0991 17.6081 74.1196 17.7386 74.1679 17.8597C74.2162 17.9809 74.291 18.0897 74.387 18.178C74.6086 18.3506 74.8855 18.4367 75.166 18.42V18.418Z" fill="#F9F9F9"/>
<path d="M78.204 13.417H79.113L80.34 16.611C80.542 17.1255 80.709 17.653 80.84 18.19H80.881C80.925 18.0167 81.018 17.7193 81.16 17.298C81.302 16.8767 81.7643 15.583 82.547 13.417H83.456L81.049 19.795C80.8884 20.3056 80.6007 20.767 80.213 21.136C79.8827 21.4058 79.4663 21.5477 79.04 21.536C78.7818 21.536 78.5245 21.5068 78.273 21.449V20.769C78.4799 20.8117 78.6908 20.8321 78.902 20.83C79.1892 20.8273 79.4673 20.7296 79.6931 20.5521C79.9189 20.3746 80.0795 20.1274 80.15 19.849L80.461 19.049L78.204 13.417Z" fill="#F9F9F9"/>
<path d="M52.2 13.938C52.4689 14.1219 52.6862 14.3716 52.8314 14.6632C52.9765 14.9548 53.0446 15.2788 53.0293 15.6041C53.014 15.9295 52.9157 16.2456 52.7437 16.5223C52.5718 16.799 52.332 17.0271 52.0471 17.185C51.9554 17.2527 51.8788 17.3388 51.8224 17.4378C51.7659 17.5369 51.7307 17.6466 51.7191 17.76C51.726 17.8611 51.7569 17.9591 51.809 18.046C51.8612 18.1329 51.9331 18.2062 52.019 18.26L52.441 18.588C52.7265 18.7602 52.9654 18.9998 53.1369 19.2856C53.3085 19.5715 53.4074 19.895 53.425 20.228C53.425 21.328 52.3591 22.441 50.3451 22.441C48.6451 22.441 47.826 21.634 47.826 20.765C47.8373 20.4686 47.9264 20.1804 48.0844 19.9293C48.2424 19.6783 48.4637 19.4733 48.726 19.335C49.4202 18.9852 50.1858 18.8008 50.963 18.796C50.7513 18.5816 50.626 18.2968 50.6111 17.996C50.6154 17.8368 50.6554 17.6806 50.7281 17.539C50.5991 17.551 50.4701 17.563 50.3521 17.563C50.1023 17.5754 49.8525 17.5371 49.6179 17.4504C49.3833 17.3638 49.1687 17.2305 48.9869 17.0587C48.8052 16.8869 48.6601 16.68 48.5605 16.4506C48.4608 16.2213 48.4086 15.9741 48.407 15.724C48.4131 15.4238 48.4832 15.1284 48.6125 14.8575C48.7418 14.5866 48.9275 14.3464 49.157 14.153C49.7589 13.6968 50.5029 13.4686 51.257 13.509H53.6691L52.9191 13.931L52.2 13.938ZM51.3671 19.138C51.2778 19.1275 51.1879 19.1235 51.0981 19.126C50.6811 19.1337 50.2671 19.1973 49.8671 19.315C49.5915 19.3808 49.3445 19.5339 49.1629 19.7513C48.9813 19.9688 48.8747 20.2391 48.859 20.522C48.859 21.353 49.6681 21.952 50.9211 21.952C52.0451 21.952 52.6431 21.411 52.6431 20.686C52.6461 20.088 52.258 19.776 51.368 19.139L51.3671 19.138ZM51.7071 16.913C51.9132 16.6775 52.0181 16.3703 51.9991 16.058C51.9991 15.215 51.499 13.903 50.523 13.903C50.3664 13.9051 50.212 13.9408 50.0704 14.0078C49.9288 14.0747 49.8031 14.1713 49.7021 14.291C49.5194 14.5419 49.4283 14.8479 49.4441 15.158C49.4441 15.943 49.9011 17.244 50.9091 17.244C51.207 17.2362 51.4915 17.1187 51.7081 16.914L51.7071 16.913Z" fill="#F9F9F9"/>
<path d="M44.825 18.9521C44.4544 18.9648 44.0851 18.9026 43.7392 18.7694C43.3932 18.6362 43.0776 18.4346 42.8112 18.1767C42.5448 17.9188 42.3331 17.6099 42.1888 17.2684C42.0444 16.927 41.9703 16.5599 41.971 16.1891C41.9783 15.8021 42.0631 15.4205 42.2203 15.0667C42.3774 14.713 42.6038 14.3943 42.8861 14.1294C43.1684 13.8645 43.5009 13.6588 43.8639 13.5245C44.227 13.3902 44.6132 13.3298 45 13.3471C45.3664 13.3389 45.7307 13.4045 46.0713 13.5399C46.4119 13.6753 46.7217 13.8779 46.9825 14.1354C47.2432 14.393 47.4495 14.7004 47.5891 15.0393C47.7286 15.3781 47.7987 15.7416 47.795 16.1081C47.7938 16.492 47.7152 16.8717 47.564 17.2245C47.4127 17.5773 47.1918 17.896 46.9145 18.1615C46.6373 18.427 46.3093 18.6339 45.9503 18.7697C45.5913 18.9056 45.2085 18.9676 44.825 18.9521ZM46.287 18.0051C46.5424 17.6216 46.666 17.1652 46.639 16.7051C46.639 15.6751 46.148 13.7051 44.698 13.7051C44.311 13.7097 43.9382 13.8514 43.646 14.1051C43.4554 14.288 43.3082 14.5111 43.2149 14.7582C43.1217 15.0052 43.0848 15.27 43.107 15.5331C43.107 16.6911 43.68 18.5961 45.096 18.5961C45.3266 18.5963 45.5542 18.5431 45.7609 18.4405C45.9675 18.338 46.1476 18.189 46.287 18.0051Z" fill="#F9F9F9"/>
<path d="M38.486 18.9521C38.1154 18.9648 37.7461 18.9026 37.4002 18.7694C37.0542 18.6362 36.7386 18.4346 36.4722 18.1767C36.2058 17.9188 35.9942 17.6099 35.8498 17.2684C35.7054 16.927 35.6313 16.5599 35.632 16.1891C35.6393 15.8021 35.7241 15.4205 35.8813 15.0667C36.0384 14.713 36.2649 14.3943 36.5472 14.1294C36.8294 13.8645 37.1619 13.6588 37.525 13.5245C37.888 13.3902 38.2743 13.3298 38.661 13.3471C39.0274 13.3389 39.3917 13.4045 39.7323 13.5399C40.0728 13.6753 40.3827 13.8779 40.6435 14.1354C40.9042 14.393 41.1105 14.7004 41.2501 15.0393C41.3897 15.3781 41.4597 15.7416 41.456 16.1081C41.4545 16.4919 41.3758 16.8715 41.2244 17.2242C41.073 17.5769 40.8521 17.8954 40.5749 18.1609C40.2977 18.4263 39.9699 18.6332 39.611 18.7691C39.2521 18.9051 38.8695 18.9673 38.486 18.9521ZM39.948 18.0051C40.2034 17.6216 40.327 17.1652 40.3 16.7051C40.3 15.6751 39.809 13.7051 38.359 13.7051C37.972 13.7097 37.5992 13.8514 37.307 14.1051C37.1164 14.288 36.9692 14.5111 36.8759 14.7582C36.7827 15.0052 36.7458 15.27 36.768 15.5331C36.768 16.6911 37.341 18.5961 38.757 18.5961C38.9876 18.5958 39.215 18.5423 39.4215 18.4398C39.6281 18.3373 39.8082 18.1886 39.948 18.0051Z" fill="#F9F9F9"/>
<path d="M34.738 18.7689L33.057 19.1569C32.4165 19.2739 31.7679 19.3408 31.117 19.3569C30.5367 19.3993 29.9539 19.3199 29.406 19.124C28.8581 18.928 28.3572 18.6198 27.9354 18.219C27.5135 17.8183 27.1801 17.3338 26.9563 16.7967C26.7325 16.2596 26.6234 15.6817 26.636 15.0999C26.6408 14.4934 26.7697 13.8942 27.0148 13.3394C27.2598 12.7845 27.6158 12.2856 28.0608 11.8735C28.5059 11.4613 29.0306 11.1446 29.6026 10.9428C30.1746 10.7409 30.7818 10.6583 31.387 10.6999C31.9953 10.7007 32.6008 10.7834 33.187 10.9459C33.7457 11.0887 34.2724 11.336 34.739 11.6749L33.763 12.6029L33.352 12.6959L33.646 12.2249C33.3277 11.8748 32.9391 11.5957 32.5055 11.4062C32.0719 11.2166 31.6032 11.1208 31.13 11.1249C30.6833 11.1225 30.2409 11.2123 29.8305 11.3886C29.4201 11.5649 29.0505 11.824 28.7448 12.1497C28.4391 12.4754 28.2039 12.8607 28.0539 13.2814C27.9039 13.7021 27.8423 14.1493 27.873 14.5949C27.8551 15.1525 27.9497 15.708 28.1509 16.2283C28.3522 16.7486 28.6561 17.2231 29.0445 17.6236C29.4329 18.024 29.8979 18.3423 30.4118 18.5593C30.9258 18.7763 31.4781 18.8878 32.036 18.8869C32.5495 18.8993 33.0595 18.799 33.53 18.5929V16.7029L31.755 16.7959L32.695 16.2889H35.189L34.883 16.5829C34.8514 16.6046 34.8247 16.6326 34.8046 16.6651C34.7845 16.6977 34.7713 16.734 34.766 16.7719C34.754 16.8769 34.742 17.2189 34.742 17.3359V18.7709L34.738 18.7689Z" fill="#F9F9F9"/>
<path d="M55.9171 18.43C55.5291 18.394 55.4481 18.325 55.4481 17.866V11.209C55.4481 11.184 55.448 11.158 55.455 11.133C55.503 10.722 55.62 10.652 55.985 10.439H54.302L53.42 10.862H54.32V18.122C54.32 18.357 54.274 18.392 54.002 18.744H56.084L56.519 18.486C56.318 18.464 56.1181 18.454 55.9171 18.43Z" fill="#F9F9F9"/>
<path d="M60.7021 18.5382C60.5741 18.6082 60.4451 18.6912 60.3181 18.7492C59.9604 18.9038 59.5736 18.9798 59.1841 18.9722C58.6298 18.9969 58.0831 18.8364 57.63 18.5162C57.2519 18.2278 56.9471 17.8542 56.7404 17.426C56.5336 16.9977 56.4307 16.5267 56.44 16.0512C56.4329 15.6969 56.497 15.3447 56.6286 15.0157C56.7601 14.6866 56.9564 14.3872 57.2058 14.1354C57.4552 13.8836 57.7526 13.6845 58.0804 13.5498C58.4081 13.415 58.7597 13.3475 59.114 13.3512C59.5365 13.3467 59.9519 13.4596 60.3141 13.6772C60.7228 13.9451 61.0145 14.3583 61.13 14.8332L58.386 15.9432L57.4861 16.0132C57.5433 16.6261 57.8166 17.1986 58.2572 17.6284C58.6978 18.0582 59.277 18.3172 59.8911 18.3592C60.3923 18.344 60.8818 18.2038 61.315 17.9512L60.7021 18.5382ZM59.6021 15.0582C59.8231 14.9762 59.94 14.9072 59.94 14.7442C59.9017 14.4656 59.7632 14.2104 59.5505 14.0264C59.3377 13.8424 59.0653 13.7421 58.7841 13.7442C58.5867 13.7556 58.3938 13.8075 58.2174 13.8968C58.041 13.9861 57.8849 14.1108 57.7589 14.2631C57.6329 14.4154 57.5396 14.592 57.4849 14.782C57.4302 14.972 57.4153 15.1712 57.441 15.3672C57.441 15.5672 57.4651 15.7752 57.4771 15.9862L59.6021 15.0582Z" fill="#F9F9F9"/>
<path d="M61.8309 13.433V14.203H61.7369V13.433H61.4819V13.353H62.0819V13.433H61.8309Z" fill="#F9F9F9"/>
<path d="M62.881 14.203V13.424H62.876L62.638 14.203H62.565L62.325 13.424V14.203H62.24V13.353H62.386L62.602 14.04L62.814 13.353H62.962V14.203H62.881Z" fill="#F9F9F9"/>
<path d="M28.9701 8.41318H28.3851C28.3499 8.18099 28.294 7.95241 28.2181 7.73018H27.3751C27.2954 7.95162 27.2377 8.1804 27.2031 8.41318H26.6541C26.6541 8.36585 26.7964 7.97585 27.0811 7.24318C27.2514 6.85061 27.394 6.44663 27.5081 6.03418H28.1981C28.3023 6.43902 28.4312 6.8371 28.5841 7.22618C28.7366 7.61369 28.8655 8.01009 28.9701 8.41318ZM28.1271 7.38318C27.9201 6.75418 27.8141 6.41618 27.8141 6.36518H27.7851C27.6948 6.7098 27.587 7.04957 27.4621 7.38318H28.1271Z" fill="#F9F9FA"/>
<path d="M31.327 8.41316H30.877C30.7384 8.13306 30.5708 7.86828 30.377 7.62316C30.1303 7.30854 29.9283 6.96123 29.777 6.59116H29.748C29.7769 6.83077 29.7923 7.07182 29.794 7.31316C29.794 7.61316 29.803 7.97916 29.819 8.41316H29.37C29.3887 8.03583 29.3977 7.62116 29.397 7.16916C29.397 6.72516 29.389 6.34616 29.37 6.03516H29.912C30.0275 6.31108 30.1789 6.57063 30.362 6.80716C30.5853 7.10772 30.7704 7.4349 30.913 7.78116H30.94C30.9126 7.53843 30.8979 7.29442 30.896 7.05016C30.896 6.72016 30.8877 6.38182 30.871 6.03516H31.328C31.3113 6.33782 31.303 6.71582 31.303 7.16916C31.303 7.62249 31.311 8.03716 31.327 8.41316Z" fill="#F9F9FA"/>
<path d="M33.973 7.14079C33.9779 7.47359 33.8593 7.79639 33.64 8.04679C33.5239 8.17751 33.3798 8.2803 33.2184 8.34749C33.057 8.41468 32.8826 8.44452 32.708 8.43479C32.528 8.43479 32.28 8.42779 31.963 8.41279C31.9783 8.04545 31.9863 7.63079 31.987 7.16879C31.987 6.72479 31.979 6.34678 31.963 6.03478H32.283C32.3357 6.03478 32.414 6.03312 32.518 6.02979L32.718 6.02479C32.8913 6.00871 33.0661 6.02963 33.2307 6.08618C33.3954 6.14272 33.5461 6.2336 33.673 6.35279C33.8702 6.56735 33.9776 6.8494 33.973 7.14079ZM33.473 7.21879C33.4806 7.00369 33.4095 6.79319 33.273 6.62679C33.1935 6.5428 33.0961 6.47767 32.9882 6.43614C32.8802 6.39461 32.7643 6.37775 32.649 6.38679C32.5767 6.38798 32.5046 6.39365 32.433 6.40378C32.445 6.64678 32.452 6.90378 32.452 7.16678C32.452 7.45778 32.459 7.74679 32.471 8.03179C32.5478 8.04636 32.6258 8.05372 32.704 8.05379C32.8132 8.06221 32.9228 8.04457 33.0238 8.00232C33.1248 7.96007 33.2143 7.89442 33.285 7.81079C33.4124 7.64011 33.4789 7.43169 33.474 7.21879H33.473Z" fill="#F9F9FA"/>
<path d="M36.412 8.411H35.871C35.7954 8.13217 35.6863 7.86354 35.546 7.611C35.5018 7.55829 35.4456 7.51704 35.382 7.49075C35.3185 7.46446 35.2495 7.45391 35.181 7.46C35.11 7.46 35.043 7.46 34.981 7.46C34.981 7.773 34.986 8.089 34.998 8.409H34.49C34.5053 8.04166 34.5133 7.627 34.514 7.165C34.514 6.721 34.506 6.343 34.49 6.031H34.806L35.035 6.026C35.151 6.026 35.259 6.021 35.358 6.021C35.9173 6.021 36.1967 6.212 36.196 6.594C36.1986 6.73789 36.153 6.87851 36.0663 6.99343C35.9797 7.10834 35.857 7.19092 35.718 7.228V7.254C35.8593 7.30328 35.9754 7.40645 36.041 7.541C36.1855 7.82166 36.3095 8.11242 36.412 8.411ZM35.727 6.732C35.727 6.491 35.571 6.368 35.26 6.368C35.1594 6.36688 35.059 6.37525 34.96 6.393C34.974 6.582 34.98 6.828 34.98 7.131H35.15C35.533 7.136 35.727 7 35.727 6.731V6.732Z" fill="#F9F9FA"/>
<path d="M39.03 7.17778C39.0419 7.52074 38.9188 7.85467 38.687 8.10778C38.5802 8.22673 38.4489 8.32126 38.3022 8.38494C38.1556 8.44862 37.9969 8.47994 37.837 8.47677C37.6863 8.48022 37.5366 8.45191 37.3975 8.39368C37.2585 8.33544 37.1333 8.24859 37.03 8.13877C36.922 8.02382 36.8377 7.8887 36.7819 7.74113C36.7261 7.59357 36.7 7.43645 36.705 7.27877C36.6931 6.93581 36.8163 6.60188 37.048 6.34877C37.1549 6.22982 37.2861 6.13528 37.4328 6.07161C37.5795 6.00793 37.7381 5.97661 37.898 5.97977C38.0487 5.97632 38.1984 6.00464 38.3375 6.06287C38.4765 6.12111 38.6017 6.20796 38.705 6.31777C38.8135 6.43244 38.898 6.56751 38.9538 6.71515C39.0096 6.86279 39.0355 7.02004 39.03 7.17778ZM38.53 7.23178C38.5394 7.00818 38.4685 6.7886 38.33 6.61277C38.2736 6.53822 38.2006 6.47787 38.1167 6.43655C38.0328 6.39523 37.9405 6.37407 37.847 6.37477C37.7579 6.37549 37.6703 6.39768 37.5916 6.43946C37.513 6.48124 37.4455 6.54138 37.395 6.61478C37.2657 6.78931 37.1997 7.00271 37.208 7.21977C37.1992 7.44329 37.2701 7.66265 37.408 7.83877C37.4642 7.91306 37.5369 7.97324 37.6204 8.01455C37.7039 8.05586 37.7959 8.07716 37.889 8.07677C37.9781 8.07606 38.0657 8.05388 38.1444 8.0121C38.2231 7.97032 38.2905 7.91018 38.341 7.83678C38.4695 7.66224 38.535 7.44934 38.527 7.23278L38.53 7.23178Z" fill="#F9F9FA"/>
<path d="M40.062 8.41316H39.545C39.5604 8.03583 39.5684 7.62116 39.569 7.16916C39.569 6.72516 39.561 6.34616 39.545 6.03516H40.062C40.047 6.34116 40.038 6.72016 40.038 7.16916C40.038 7.61816 40.046 8.04216 40.062 8.41316Z" fill="#F9F9FA"/>
<path d="M42.709 7.14079C42.7139 7.47359 42.5953 7.79639 42.376 8.04679C42.2599 8.17751 42.1158 8.2803 41.9544 8.34749C41.793 8.41468 41.6185 8.44452 41.444 8.43479C41.264 8.43479 41.016 8.42779 40.699 8.41279C40.7143 8.04545 40.7223 7.63079 40.723 7.16879C40.723 6.72479 40.715 6.34678 40.699 6.03478H41.019C41.0716 6.03478 41.15 6.03312 41.254 6.02979L41.454 6.02479C41.6273 6.00871 41.8021 6.02963 41.9667 6.08618C42.1313 6.14272 42.2821 6.2336 42.409 6.35279C42.6068 6.56696 42.7143 6.84927 42.709 7.14079ZM42.209 7.21879C42.2166 7.00369 42.1455 6.79319 42.009 6.62679C41.9294 6.5428 41.8321 6.47767 41.7241 6.43614C41.6162 6.39461 41.5003 6.37775 41.385 6.38679C41.3127 6.38798 41.2406 6.39365 41.169 6.40378C41.181 6.64678 41.188 6.90378 41.188 7.16678C41.188 7.45778 41.195 7.74679 41.207 8.03179C41.2854 8.04735 41.3651 8.05538 41.445 8.05578C41.5541 8.06413 41.6637 8.04645 41.7647 8.00421C41.8657 7.96197 41.9553 7.89636 42.026 7.81278C42.1524 7.64105 42.2175 7.43191 42.211 7.21879H42.209Z" fill="#F9F9FA"/>
<path d="M46.221 8.41318H45.636C45.6009 8.18099 45.545 7.9524 45.469 7.73018H44.626C44.5463 7.95162 44.4887 8.1804 44.454 8.41318H43.905C43.905 8.36585 44.0474 7.97585 44.332 7.24318C44.5023 6.8506 44.645 6.44662 44.759 6.03418H45.449C45.5532 6.43902 45.6822 6.8371 45.8351 7.22618C45.9866 7.61403 46.1155 8.01036 46.221 8.41318ZM45.3781 7.38318C45.1711 6.75418 45.065 6.41618 45.065 6.36518H45.036C44.9458 6.70979 44.838 7.04957 44.713 7.38318H45.3781Z" fill="#F9F9FA"/>
<path d="M48.351 6.65593C48.3591 6.78251 48.3333 6.90897 48.2762 7.02221C48.219 7.13545 48.1327 7.23133 48.026 7.29993C47.7853 7.44582 47.5071 7.5178 47.226 7.50693C47.168 7.50693 47.126 7.50693 47.104 7.50693C47.104 7.73593 47.111 8.03693 47.124 8.41293H46.611C46.6263 8.06093 46.6343 7.64626 46.6349 7.16893C46.6349 6.73026 46.627 6.35226 46.611 6.03493H46.929L47.189 6.02993C47.316 6.02993 47.427 6.02493 47.522 6.02493C47.7284 6.01846 47.9321 6.0727 48.108 6.18093C48.1864 6.23207 48.25 6.3028 48.2926 6.38612C48.3353 6.46943 48.3554 6.56245 48.351 6.65593ZM47.88 6.75593C47.88 6.49593 47.707 6.36493 47.362 6.36493C47.27 6.36504 47.1782 6.37408 47.088 6.39193C47.102 6.62093 47.108 6.88293 47.108 7.17393C47.139 7.17393 47.174 7.17393 47.213 7.17393C47.657 7.17793 47.88 7.03893 47.88 6.75593Z" fill="#F9F9FA"/>
<path d="M50.541 6.65593C50.5492 6.78251 50.5234 6.90897 50.4662 7.02221C50.4091 7.13545 50.3227 7.23133 50.216 7.29993C49.9754 7.44582 49.6972 7.5178 49.416 7.50693C49.358 7.50693 49.316 7.50693 49.294 7.50693C49.294 7.73593 49.301 8.03693 49.314 8.41293H48.801C48.8164 8.06093 48.8243 7.64626 48.825 7.16893C48.825 6.73026 48.817 6.35226 48.801 6.03493H49.119L49.379 6.02993C49.507 6.02993 49.617 6.02493 49.712 6.02493C49.9184 6.01846 50.1221 6.0727 50.298 6.18093C50.3767 6.23177 50.4406 6.30245 50.4832 6.38584C50.5259 6.46923 50.5458 6.56239 50.541 6.65593ZM50.07 6.75593C50.07 6.49593 49.897 6.36493 49.552 6.36493C49.46 6.36504 49.3683 6.37408 49.278 6.39193C49.292 6.62093 49.298 6.88293 49.298 7.17393C49.329 7.17393 49.364 7.17393 49.403 7.17393C49.849 7.17793 50.07 7.03893 50.07 6.75593Z" fill="#F9F9FA"/>
<path d="M54.122 7.17778C54.1339 7.52074 54.0108 7.85467 53.779 8.10778C53.6722 8.22673 53.541 8.32126 53.3943 8.38494C53.2476 8.44862 53.0889 8.47994 52.929 8.47677C52.7783 8.48022 52.6286 8.45191 52.4896 8.39368C52.3505 8.33544 52.2253 8.24859 52.122 8.13877C52.014 8.02382 51.9297 7.8887 51.8739 7.74113C51.8182 7.59357 51.792 7.43645 51.7971 7.27877C51.7852 6.93581 51.9083 6.60188 52.14 6.34877C52.2469 6.22982 52.3781 6.13528 52.5248 6.07161C52.6715 6.00793 52.8302 5.97661 52.99 5.97977C53.1407 5.97632 53.2905 6.00464 53.4295 6.06287C53.5686 6.12111 53.6938 6.20796 53.7971 6.31777C53.9055 6.43244 53.9901 6.56751 54.0459 6.71515C54.1017 6.86279 54.1275 7.02004 54.122 7.17778ZM53.622 7.23178C53.6314 7.00818 53.5605 6.7886 53.4221 6.61277C53.3657 6.53822 53.2926 6.47787 53.2087 6.43655C53.1249 6.39523 53.0325 6.37407 52.9391 6.37477C52.85 6.37549 52.7624 6.39768 52.6837 6.43946C52.605 6.48124 52.5375 6.54138 52.4871 6.61478C52.3577 6.78931 52.2918 7.00271 52.3 7.21977C52.2905 7.4434 52.3614 7.66303 52.5001 7.83877C52.5563 7.91306 52.629 7.97324 52.7125 8.01455C52.7959 8.05586 52.8879 8.07716 52.981 8.07677C53.0701 8.07606 53.1577 8.05388 53.2364 8.0121C53.3151 7.97032 53.3825 7.91018 53.433 7.83678C53.5611 7.66211 53.6264 7.44922 53.618 7.23278L53.622 7.23178Z" fill="#F9F9FA"/>
<path d="M56.597 8.41316H56.147C56.0085 8.13305 55.8409 7.86826 55.647 7.62316C55.4003 7.30854 55.1983 6.96123 55.047 6.59116H55.018C55.0469 6.83076 55.0623 7.07181 55.064 7.31316C55.064 7.61316 55.073 7.97916 55.09 8.41316H54.641C54.6597 8.03583 54.6687 7.62116 54.668 7.16916C54.668 6.72516 54.66 6.34616 54.641 6.03516H55.183C55.2985 6.31108 55.4498 6.57064 55.633 6.80716C55.8564 7.10771 56.0414 7.43489 56.184 7.78116H56.211C56.1836 7.53843 56.1689 7.29442 56.167 7.05016C56.167 6.72016 56.1587 6.38182 56.142 6.03516H56.599C56.5823 6.33782 56.574 6.71582 56.574 7.16916C56.574 7.62249 56.5817 8.03716 56.597 8.41316Z" fill="#F9F9FA"/>
<defs>
<linearGradient id="paint0_linear" x1="11.6275" y1="5.7251" x2="11.6275" y2="24.9851" gradientUnits="userSpaceOnUse">
<stop stop-color="#257CB0"/>
<stop offset="0.286" stop-color="#4A93B5"/>
<stop offset="0.767" stop-color="#78BCBB"/>
<stop offset="1" stop-color="#89CFBD"/>
</linearGradient>
<linearGradient id="paint1_linear" x1="6.77197" y1="10.5058" x2="19.092" y2="10.5058" gradientUnits="userSpaceOnUse">
<stop stop-color="#52C1AD"/>
<stop offset="1" stop-color="#DEE89A"/>
</linearGradient>
<linearGradient id="paint2_linear" x1="12.931" y1="15.355" x2="12.931" y2="25.056" gradientUnits="userSpaceOnUse">
<stop stop-color="#EC413D"/>
<stop offset="0.167" stop-color="#DA4452"/>
<stop offset="0.575" stop-color="#B0487A"/>
<stop offset="0.862" stop-color="#954A92"/>
<stop offset="1" stop-color="#8A4A9D"/>
</linearGradient>
<linearGradient id="paint3_linear" x1="20.0285" y1="12.77" x2="20.0285" y2="17.943" gradientUnits="userSpaceOnUse">
<stop stop-color="#F58879"/>
<stop offset="0.119" stop-color="#F69079"/>
<stop offset="0.713" stop-color="#FCB877"/>
<stop offset="1" stop-color="#FEC874"/>
</linearGradient>
</defs>
</svg>
