<svg width="40" height="40" viewBox="0 0 40 40" fill="none" xmlns="http://www.w3.org/2000/svg">
<path d="M20 40C31.0457 40 40 31.0457 40 20C40 8.9543 31.0457 0 20 0C8.9543 0 0 8.9543 0 20C0 31.0457 8.9543 40 20 40Z" fill="#FF0000"/>
<path d="M30.9399 18.1081C30.9319 17.8601 30.9189 17.6081 30.8999 17.3641C30.9205 16.2665 30.6097 15.1883 30.0079 14.2701C29.3723 13.6419 28.5145 13.2898 27.6209 13.2901C26.5149 13.1651 25.4039 13.0901 24.2919 13.0471C22.0399 12.9611 19.7849 13.0111 17.5329 13.0611C16.3759 13.0871 15.2179 13.1121 14.0639 13.2041C12.6469 13.3171 11.1899 13.5251 10.5299 14.9401C10.0624 16.3058 9.8833 17.7537 10.0039 19.1921C9.99689 20.4181 9.99289 21.6451 10.0419 22.8701C10.1059 24.4601 10.1999 26.5311 11.9159 27.2291C12.8831 27.556 13.8951 27.7311 14.9159 27.7481C15.9529 27.8151 16.9929 27.8071 18.0319 27.8231C20.2109 27.8551 22.3889 27.7811 24.5669 27.7381C26.0901 27.7914 27.6124 27.6089 29.0799 27.1971C30.3289 26.7711 30.6549 25.4171 30.8239 24.2421C30.9498 23.071 30.9909 21.8922 30.9469 20.7151C30.9469 19.8461 30.9699 18.9761 30.9399 18.1081Z" fill="white"/>
<path d="M23.7799 20.392L18.3539 17.207V23.583L23.7799 20.392Z" fill="#FF0000"/>
</svg>
