<svg width="32" height="23" viewBox="0 0 32 23" fill="none" xmlns="http://www.w3.org/2000/svg">
<path d="M15.8104 1.2563V1.75301C15.9068 1.75301 25.3757 1.75783 27.6845 2.36706C28.8381 2.67087 29.7385 3.55658 30.0473 4.69144C30.6666 6.95635 30.6715 11.79 30.6715 11.8382C30.6715 11.8864 30.6666 16.7201 30.0473 18.985C29.7385 20.1198 28.8381 21.0055 27.6845 21.3094C25.3774 21.9186 15.9101 21.9234 15.8104 21.9234C15.7107 21.9234 6.24508 21.9186 3.93627 21.3094C2.78267 21.0055 1.88235 20.1198 1.57352 18.985C0.954246 16.7201 0.949343 11.8864 0.949343 11.8382C0.949343 11.79 0.954246 6.95635 1.57352 4.69144C1.88235 3.55658 2.78267 2.67087 3.93627 2.36706C6.24345 1.75783 15.7107 1.75301 15.8104 1.75301V1.2563ZM15.8104 0.954102C15.8104 0.954102 5.91992 0.954101 3.4526 1.60191C2.08986 1.96359 1.02451 3.01004 0.658499 4.35066C4.75277e-06 6.77792 0 11.835 0 11.835C0 11.835 4.75277e-06 16.8985 0.658499 19.3193C1.02615 20.6599 2.08986 21.708 3.4526 22.0681C5.91992 22.7159 15.8104 22.7159 15.8104 22.7159C15.8104 22.7159 25.7009 22.7159 28.1682 22.0681C29.5309 21.7064 30.5963 20.6599 30.9623 19.3193C31.6208 16.8921 31.6208 11.835 31.6208 11.835C31.6208 11.835 31.6208 6.77149 30.9623 4.35066C30.5947 3.01004 29.5309 1.96198 28.1682 1.60191C25.6993 0.954101 15.8104 0.954102 15.8104 0.954102Z" fill="white"/>
<path d="M12.6501 16.5097L20.8625 11.8432L12.6501 7.17676V16.5097Z" fill="white"/>
</svg>
