<svg width="31" height="19" viewBox="0 0 31 19" fill="none" xmlns="http://www.w3.org/2000/svg">
<path fill-rule="evenodd" clip-rule="evenodd" d="M25.1355 9.3056C25.1355 9.3056 29.1208 3.77433 29.5178 1.9563C29.6502 1.30849 29.3577 0.943598 28.6714 0.943598H25.2123C24.629 0.885729 24.0816 1.23133 23.8904 1.77626C22.7809 4.06689 21.3888 6.21285 19.745 8.16752C19.0146 8.96482 18.6437 9.21076 18.2401 9.21076C17.9133 9.21076 17.7646 8.94392 17.7646 8.22539V1.90647C17.7646 1.02397 17.66 0.763563 16.9182 0.763563H11.3725C11.0408 0.720161 10.7352 0.950028 10.6911 1.27634C10.6878 1.29563 10.6862 1.31653 10.6862 1.33582C10.6862 2.16848 11.982 2.35495 11.982 4.6086V9.25737C11.982 10.1945 11.9264 10.5578 11.4787 10.5578C10.2892 10.5578 7.46728 6.53434 5.88395 1.96112C5.56859 1.02397 5.22546 0.768385 4.32841 0.768385H0.869273C0.415027 0.742666 0.0277742 1.08505 0.00163059 1.53032C-3.39079e-06 1.55443 0 1.57694 0 1.60105C0 2.51087 1.08496 6.7192 5.33494 12.3533C8.1846 16.1485 11.9378 18.1948 15.312 18.1948C17.3692 18.1948 17.8741 17.8573 17.8741 17.0021V14.0926C17.8741 13.3628 18.1617 13.0494 18.5881 13.0494C19.0636 13.0494 19.897 13.2021 21.8643 15.1021C24.1894 17.285 24.343 18.1948 25.611 18.1948H29.49C29.8887 18.1948 30.2531 18.0148 30.2531 17.3622C30.2531 16.507 29.1191 14.9703 27.3757 13.1539C26.6616 12.2167 25.4999 11.2056 25.1306 10.7362C24.611 10.1849 24.7711 9.87142 25.1355 9.29917V9.3056Z" fill="white"/>
</svg>
