<svg width="34" height="20" viewBox="0 0 34 20" fill="none" xmlns="http://www.w3.org/2000/svg">
<path d="M33.6 18.1001H0V19.6001H33.6V18.1001Z" fill="#CB001C"/>
<path d="M33.6 16.6001H0V18.1001H33.6V16.6001Z" fill="white"/>
<path d="M33.6 15.1001H0V16.6001H33.6V15.1001Z" fill="#CB001C"/>
<path d="M33.6 13.6001H0V15.1001H33.6V13.6001Z" fill="white"/>
<path d="M33.6 12H0V13.5H33.6V12Z" fill="#CB001C"/>
<path d="M33.6 10.5H0V12H33.6V10.5Z" fill="white"/>
<path d="M33.6 9H0V10.5H33.6V9Z" fill="#CB001C"/>
<path d="M33.6 7.5H0V9H33.6V7.5Z" fill="white"/>
<path d="M33.6 6H0V7.5H33.6V6Z" fill="#CB001C"/>
<path d="M33.6 4.5H0V6H33.6V4.5Z" fill="white"/>
<path d="M33.6 3H0V4.5H33.6V3Z" fill="#CB001C"/>
<path d="M33.6 1.5H0V3H33.6V1.5Z" fill="white"/>
<path d="M33.6 0H0V1.5H33.6V0Z" fill="#CB001C"/>
<path d="M15.3 0H0V10.5H15.3V0Z" fill="#2A3560"/>
<path d="M1.3998 1.2002L1.4998 1.6002H1.8998L1.5998 1.8002L1.6998 2.2002L1.3998 2.0002L0.999805 2.2002L1.1998 1.8002L0.799805 1.6002H1.2998L1.3998 1.2002Z" fill="white"/>
<path d="M1.3998 2.8999L1.4998 3.2999H1.8998L1.5998 3.5999L1.6998 3.9999L1.3998 3.6999L0.999805 3.9999L1.1998 3.5999L0.799805 3.2999H1.2998L1.3998 2.8999Z" fill="white"/>
<path d="M1.3998 4.7002L1.4998 5.1002H1.8998L1.5998 5.3002L1.6998 5.7002L1.3998 5.5002L0.999805 5.7002L1.1998 5.3002L0.799805 5.1002H1.2998L1.3998 4.7002Z" fill="white"/>
<path d="M1.3998 6.3999L1.4998 6.7999H1.8998L1.5998 7.0999L1.6998 7.4999L1.3998 7.1999L0.999805 7.4999L1.1998 7.0999L0.799805 6.7999H1.2998L1.3998 6.3999Z" fill="white"/>
<path d="M1.3998 8.2002L1.4998 8.6002H1.8998L1.5998 8.8002L1.6998 9.2002L1.3998 9.0002L0.999805 9.2002L1.1998 8.8002L0.799805 8.6002H1.2998L1.3998 8.2002Z" fill="white"/>
<path d="M2.6001 2.1001L2.7001 2.5001H3.2001L2.8001 2.7001L2.9001 3.1001L2.6001 2.9001L2.3001 3.1001L2.4001 2.7001L2.1001 2.5001H2.5001L2.6001 2.1001Z" fill="white"/>
<path d="M2.6001 3.7998L2.7001 4.1998H3.2001L2.8001 4.4998L2.9001 4.8998L2.6001 4.5998L2.3001 4.8998L2.4001 4.4998L2.1001 4.1998H2.5001L2.6001 3.7998Z" fill="white"/>
<path d="M2.6001 5.6001L2.7001 6.0001H3.2001L2.8001 6.3001L2.9001 6.7001L2.6001 6.4001L2.3001 6.7001L2.4001 6.3001L2.1001 6.0001H2.5001L2.6001 5.6001Z" fill="white"/>
<path d="M2.6001 7.3999L2.7001 7.7999H3.2001L2.8001 7.9999L2.9001 8.3999L2.6001 8.1999L2.3001 8.3999L2.4001 7.9999L2.1001 7.7999H2.5001L2.6001 7.3999Z" fill="white"/>
<path d="M3.7998 1.2002L3.9998 1.6002H4.3998L4.0998 1.8002L4.1998 2.2002L3.7998 2.0002L3.4998 2.2002L3.5998 1.8002L3.2998 1.6002H3.6998L3.7998 1.2002Z" fill="white"/>
<path d="M3.7998 2.8999L3.9998 3.2999H4.3998L4.0998 3.5999L4.1998 3.9999L3.7998 3.6999L3.4998 3.9999L3.5998 3.5999L3.2998 3.2999H3.6998L3.7998 2.8999Z" fill="white"/>
<path d="M3.7998 4.7002L3.9998 5.1002H4.3998L4.0998 5.3002L4.1998 5.7002L3.7998 5.5002L3.4998 5.7002L3.5998 5.3002L3.2998 5.1002H3.6998L3.7998 4.7002Z" fill="white"/>
<path d="M3.7998 6.3999L3.9998 6.7999H4.3998L4.0998 7.0999L4.1998 7.4999L3.7998 7.1999L3.4998 7.4999L3.5998 7.0999L3.2998 6.7999H3.6998L3.7998 6.3999Z" fill="white"/>
<path d="M3.7998 8.2002L3.9998 8.6002H4.3998L4.0998 8.8002L4.1998 9.2002L3.7998 9.0002L3.4998 9.2002L3.5998 8.8002L3.2998 8.6002H3.6998L3.7998 8.2002Z" fill="white"/>
<path d="M5.1 2.1001L5.2 2.5001H5.6L5.3 2.7001L5.4 3.1001L5.1 2.9001L4.7 3.1001L4.9 2.7001L4.5 2.5001H4.9L5.1 2.1001Z" fill="white"/>
<path d="M5.1 3.7998L5.2 4.1998H5.6L5.3 4.4998L5.4 4.8998L5.1 4.5998L4.7 4.8998L4.9 4.4998L4.5 4.1998H4.9L5.1 3.7998Z" fill="white"/>
<path d="M5.1 5.6001L5.2 6.0001H5.6L5.3 6.3001L5.4 6.7001L5.1 6.4001L4.7 6.7001L4.9 6.3001L4.5 6.0001H4.9L5.1 5.6001Z" fill="white"/>
<path d="M5.1 7.3999L5.2 7.7999H5.6L5.3 7.9999L5.4 8.3999L5.1 8.1999L4.7 8.3999L4.9 7.9999L4.5 7.7999H4.9L5.1 7.3999Z" fill="white"/>
<path d="M6.2998 1.2002L6.3998 1.6002H6.8998L6.4998 1.8002L6.6998 2.2002L6.2998 2.0002L5.9998 2.2002L6.0998 1.8002L5.7998 1.6002H6.1998L6.2998 1.2002Z" fill="white"/>
<path d="M6.2998 2.8999L6.3998 3.2999H6.8998L6.4998 3.5999L6.6998 3.9999L6.2998 3.6999L5.9998 3.9999L6.0998 3.5999L5.7998 3.2999H6.1998L6.2998 2.8999Z" fill="white"/>
<path d="M6.2998 4.7002L6.3998 5.1002H6.8998L6.4998 5.3002L6.6998 5.7002L6.2998 5.5002L5.9998 5.7002L6.0998 5.3002L5.7998 5.1002H6.1998L6.2998 4.7002Z" fill="white"/>
<path d="M6.2998 6.3999L6.3998 6.7999H6.8998L6.4998 7.0999L6.6998 7.4999L6.2998 7.1999L5.9998 7.4999L6.0998 7.0999L5.7998 6.7999H6.1998L6.2998 6.3999Z" fill="white"/>
<path d="M6.2998 8.2002L6.3998 8.6002H6.8998L6.4998 8.8002L6.6998 9.2002L6.2998 9.0002L5.9998 9.2002L6.0998 8.8002L5.7998 8.6002H6.1998L6.2998 8.2002Z" fill="white"/>
<path d="M7.5 2.1001L7.7 2.5001H8.1L7.8 2.7001L7.9 3.1001L7.5 2.9001L7.2 3.1001L7.3 2.7001L7 2.5001H7.4L7.5 2.1001Z" fill="white"/>
<path d="M7.5 3.7998L7.7 4.1998H8.1L7.8 4.4998L7.9 4.8998L7.5 4.5998L7.2 4.8998L7.3 4.4998L7 4.1998H7.4L7.5 3.7998Z" fill="white"/>
<path d="M7.5 5.6001L7.7 6.0001H8.1L7.8 6.3001L7.9 6.7001L7.5 6.4001L7.2 6.7001L7.3 6.3001L7 6.0001H7.4L7.5 5.6001Z" fill="white"/>
<path d="M7.5 7.3999L7.7 7.7999H8.1L7.8 7.9999L7.9 8.3999L7.5 8.1999L7.2 8.3999L7.3 7.9999L7 7.7999H7.4L7.5 7.3999Z" fill="white"/>
<path d="M8.8002 1.2002L8.9002 1.6002H9.3002L9.0002 1.8002L9.1002 2.2002L8.8002 2.0002L8.4002 2.2002L8.6002 1.8002L8.2002 1.6002H8.7002L8.8002 1.2002Z" fill="white"/>
<path d="M8.8002 2.8999L8.9002 3.2999H9.3002L9.0002 3.5999L9.1002 3.9999L8.8002 3.6999L8.4002 3.9999L8.6002 3.5999L8.2002 3.2999H8.7002L8.8002 2.8999Z" fill="white"/>
<path d="M8.8002 4.7002L8.9002 5.1002H9.3002L9.0002 5.3002L9.1002 5.7002L8.8002 5.5002L8.4002 5.7002L8.6002 5.3002L8.2002 5.1002H8.7002L8.8002 4.7002Z" fill="white"/>
<path d="M8.8002 6.3999L8.9002 6.7999H9.3002L9.0002 7.0999L9.1002 7.4999L8.8002 7.1999L8.4002 7.4999L8.6002 7.0999L8.2002 6.7999H8.7002L8.8002 6.3999Z" fill="white"/>
<path d="M8.8002 8.2002L8.9002 8.6002H9.3002L9.0002 8.8002L9.1002 9.2002L8.8002 9.0002L8.4002 9.2002L8.6002 8.8002L8.2002 8.6002H8.7002L8.8002 8.2002Z" fill="white"/>
<path d="M10 2.1001L10.1 2.5001H10.6L10.2 2.7001L10.3 3.1001L10 2.9001L9.7 3.1001L9.8 2.7001L9.5 2.5001H9.9L10 2.1001Z" fill="white"/>
<path d="M10 3.7998L10.1 4.1998H10.6L10.2 4.4998L10.3 4.8998L10 4.5998L9.7 4.8998L9.8 4.4998L9.5 4.1998H9.9L10 3.7998Z" fill="white"/>
<path d="M10 5.6001L10.1 6.0001H10.6L10.2 6.3001L10.3 6.7001L10 6.4001L9.7 6.7001L9.8 6.3001L9.5 6.0001H9.9L10 5.6001Z" fill="white"/>
<path d="M10 7.3999L10.1 7.7999H10.6L10.2 7.9999L10.3 8.3999L10 8.1999L9.7 8.3999L9.8 7.9999L9.5 7.7999H9.9L10 7.3999Z" fill="white"/>
<path d="M11.3002 1.2002L11.4002 1.6002H11.8002L11.5002 1.8002L11.6002 2.2002L11.3002 2.0002L10.9002 2.2002L11.0002 1.8002L10.7002 1.6002H11.1002L11.3002 1.2002Z" fill="white"/>
<path d="M11.3002 2.8999L11.4002 3.2999H11.8002L11.5002 3.5999L11.6002 3.9999L11.3002 3.6999L10.9002 3.9999L11.0002 3.5999L10.7002 3.2999H11.1002L11.3002 2.8999Z" fill="white"/>
<path d="M11.3002 4.7002L11.4002 5.1002H11.8002L11.5002 5.3002L11.6002 5.7002L11.3002 5.5002L10.9002 5.7002L11.0002 5.3002L10.7002 5.1002H11.1002L11.3002 4.7002Z" fill="white"/>
<path d="M11.3002 6.3999L11.4002 6.7999H11.8002L11.5002 7.0999L11.6002 7.4999L11.3002 7.1999L10.9002 7.4999L11.0002 7.0999L10.7002 6.7999H11.1002L11.3002 6.3999Z" fill="white"/>
<path d="M11.3002 8.2002L11.4002 8.6002H11.8002L11.5002 8.8002L11.6002 9.2002L11.3002 9.0002L10.9002 9.2002L11.0002 8.8002L10.7002 8.6002H11.1002L11.3002 8.2002Z" fill="white"/>
<path d="M12.4999 2.1001L12.5999 2.5001H12.9999L12.6999 2.7001L12.7999 3.1001L12.4999 2.9001L12.0999 3.1001L12.2999 2.7001L11.8999 2.5001H12.2999L12.4999 2.1001Z" fill="white"/>
<path d="M12.4999 3.7998L12.5999 4.1998H12.9999L12.6999 4.4998L12.7999 4.8998L12.4999 4.5998L12.0999 4.8998L12.2999 4.4998L11.8999 4.1998H12.2999L12.4999 3.7998Z" fill="white"/>
<path d="M12.4999 5.6001L12.5999 6.0001H12.9999L12.6999 6.3001L12.7999 6.7001L12.4999 6.4001L12.0999 6.7001L12.2999 6.3001L11.8999 6.0001H12.2999L12.4999 5.6001Z" fill="white"/>
<path d="M12.4999 7.3999L12.5999 7.7999H12.9999L12.6999 7.9999L12.7999 8.3999L12.4999 8.1999L12.0999 8.3999L12.2999 7.9999L11.8999 7.7999H12.2999L12.4999 7.3999Z" fill="white"/>
<path d="M13.7002 1.2002L13.8002 1.6002H14.3002L13.9002 1.8002L14.1002 2.2002L13.7002 2.0002L13.4002 2.2002L13.5002 1.8002L13.2002 1.6002H13.6002L13.7002 1.2002Z" fill="white"/>
<path d="M13.7002 2.8999L13.8002 3.2999H14.3002L13.9002 3.5999L14.1002 3.9999L13.7002 3.6999L13.4002 3.9999L13.5002 3.5999L13.2002 3.2999H13.6002L13.7002 2.8999Z" fill="white"/>
<path d="M13.7002 4.7002L13.8002 5.1002H14.3002L13.9002 5.3002L14.1002 5.7002L13.7002 5.5002L13.4002 5.7002L13.5002 5.3002L13.2002 5.1002H13.6002L13.7002 4.7002Z" fill="white"/>
<path d="M13.7002 6.3999L13.8002 6.7999H14.3002L13.9002 7.0999L14.1002 7.4999L13.7002 7.1999L13.4002 7.4999L13.5002 7.0999L13.2002 6.7999H13.6002L13.7002 6.3999Z" fill="white"/>
<path d="M13.7002 8.2002L13.8002 8.6002H14.3002L13.9002 8.8002L14.1002 9.2002L13.7002 9.0002L13.4002 9.2002L13.5002 8.8002L13.2002 8.6002H13.6002L13.7002 8.2002Z" fill="white"/>
</svg>
