<svg width="30" height="30" viewBox="0 0 30 30" fill="none" xmlns="http://www.w3.org/2000/svg">
<path fill-rule="evenodd" clip-rule="evenodd" d="M8.41826 0.00488281H21.5293C26.1731 0.0177425 29.9345 3.71811 29.9476 8.28651V21.7168C29.9345 26.2852 26.1731 29.9856 21.5293 29.9984H8.41826C3.77449 29.9856 0.0130718 26.2852 0 21.7168V8.28651C0.0130718 3.71811 3.77449 0.0177425 8.41826 0.00488281ZM8.41826 2.56396H21.5293C24.7384 2.5736 27.3365 5.12946 27.3463 8.28651V21.7184C27.3365 24.8755 24.7384 27.4313 21.5293 27.441H8.41826C5.20912 27.4313 2.6111 24.8755 2.60129 21.7184V8.28651C2.60946 5.12946 5.20912 2.5736 8.41826 2.56396ZM23.1829 5.06355C24.1943 5.06355 25.0146 5.8705 25.0146 6.86552C25.0146 7.86053 24.1943 8.66748 23.1829 8.66748C22.1715 8.66748 21.3512 7.86053 21.3512 6.86552V6.86391C21.3496 5.86889 22.1682 5.06195 23.1796 5.06195C23.1813 5.06195 23.1829 5.06195 23.1829 5.06195V5.06355ZM14.9705 7.1645C19.3692 7.1645 22.9345 10.672 22.9345 14.9993C22.9345 19.3265 19.3692 22.834 14.9705 22.834C10.5718 22.834 7.0065 19.3265 7.0065 14.9993C7.00487 10.6736 10.5686 7.16611 14.9656 7.1645C14.9672 7.1645 14.9689 7.1645 14.9705 7.1645ZM14.9705 9.83931C17.8708 9.83931 20.2221 12.1524 20.2221 15.0057C20.2221 17.8589 17.8708 20.1721 14.9705 20.1721C12.0702 20.1721 9.71891 17.8589 9.71891 15.0057C9.71891 12.1524 12.0702 9.83931 14.9705 9.83931Z" fill="white"/>
</svg>
