<svg width="40" height="40" viewBox="0 0 40 40" fill="none" xmlns="http://www.w3.org/2000/svg">
<path d="M20 40C31.0457 40 40 31.0457 40 20C40 8.9543 31.0457 0 20 0C8.9543 0 0 8.9543 0 20C0 31.0457 8.9543 40 20 40Z" fill="#1DA1F2"/>
<path d="M16.171 31.0008C25.9852 31.0008 31.3533 22.9268 31.3533 15.9251C31.3533 15.6958 31.3483 15.4665 31.3367 15.2372C32.3801 14.4865 33.2823 13.5577 34 12.4936C33.0247 12.9209 31.9913 13.2014 30.933 13.3267C32.0478 12.6652 32.8818 11.6225 33.2789 10.3934C32.2322 11.0121 31.0858 11.4476 29.8912 11.6786C27.8776 9.54215 24.5015 9.43161 22.3499 11.4311C21.2733 12.4326 20.6619 13.8316 20.6619 15.2966C20.6602 15.7024 20.7068 16.1083 20.8031 16.5042C16.5116 16.2881 12.5125 14.2754 9.80101 10.9643C8.38878 13.3861 9.11317 16.4828 11.4558 18.0385C10.6085 18.0121 9.78107 17.7844 9.04173 17.3736V17.4429C9.04339 19.9654 10.8344 22.1382 13.3249 22.6397C12.5391 22.8509 11.715 22.8806 10.9158 22.7288C11.6153 24.8884 13.6174 26.3666 15.9018 26.4111C14.0111 27.8827 11.6751 28.6812 9.27267 28.6779C8.84734 28.6796 8.42367 28.6548 8 28.6053C10.4324 30.1726 13.2718 31.0041 16.171 31.0008Z" fill="white"/>
</svg>
