<svg width="35" height="41" viewBox="0 0 35 41" fill="none" xmlns="http://www.w3.org/2000/svg">
<path d="M34.3724 29.9351C33.6629 31.6318 32.7922 33.2566 31.7724 34.787C30.0844 37.357 27.7064 40.556 24.7594 40.587C22.1404 40.611 21.4674 38.887 17.9134 38.902C14.3594 38.917 13.6134 40.6181 10.9974 40.5941C8.0504 40.5671 5.79739 37.677 4.10839 35.108C-0.611612 27.924 -1.1036 19.4931 1.8084 15.0081C2.6885 13.5433 3.91461 12.3169 5.37915 11.4364C6.8437 10.5559 8.50194 10.0483 10.2084 9.95807C13.3324 9.95807 15.2964 11.6711 17.8794 11.6711C20.3844 11.6711 21.9114 9.95508 25.5234 9.95508C27.024 10.0233 28.491 10.4224 29.8194 11.1237C31.1477 11.8251 32.3047 12.8114 33.2074 14.012C31.7383 14.8255 30.5328 16.0426 29.7336 17.5195C28.9343 18.9964 28.5747 20.6713 28.6972 22.3461C28.8198 24.0209 29.4194 25.6257 30.4251 26.9705C31.4308 28.3154 32.8005 29.3441 34.3724 29.9351Z" fill="#CCCCD1"/>
<path d="M22.7824 7.08289C23.5217 6.18387 24.0746 5.14663 24.4089 4.03168C24.7432 2.91673 24.8521 1.74636 24.7294 0.588867C22.3482 0.871845 20.163 2.04719 18.6144 3.87787C17.8543 4.73382 17.2833 5.7405 16.9387 6.83209C16.5941 7.92369 16.4835 9.07568 16.6144 10.2129C17.8111 10.1859 18.9866 9.89065 20.0541 9.34894C21.1216 8.80723 22.0539 8.03284 22.7824 7.08289Z" fill="#CCCCD1"/>
</svg>
