<svg width="40" height="40" viewBox="0 0 40 40" fill="none" xmlns="http://www.w3.org/2000/svg">
<path d="M20 40C31.0457 40 40 31.0457 40 20C40 8.9543 31.0457 0 20 0C8.9543 0 0 8.9543 0 20C0 31.0457 8.9543 40 20 40Z" fill="#34618E"/>
<path fill-rule="evenodd" clip-rule="evenodd" d="M26.204 20.1378C26.204 20.1378 29.159 15.9699 29.452 14.5999C29.552 14.1109 29.335 13.8369 28.826 13.8369H26.263C26.0533 13.8159 25.8427 13.8663 25.6652 13.9799C25.4877 14.0935 25.3537 14.2637 25.285 14.4629C24.463 16.1878 23.4311 17.8047 22.213 19.2769C21.672 19.8769 21.396 20.0599 21.098 20.0599C20.857 20.0599 20.746 19.8599 20.746 19.3159V14.5609C20.746 13.8959 20.668 13.6999 20.12 13.6999H16.011C15.9488 13.6914 15.8854 13.6962 15.8252 13.7137C15.7649 13.7313 15.7089 13.7613 15.661 13.8018C15.613 13.8423 15.5741 13.8925 15.5467 13.949C15.5193 14.0055 15.5041 14.0671 15.502 14.1299C15.502 14.7559 16.461 14.8979 16.461 16.5959V20.0959C16.461 20.7959 16.422 21.0749 16.089 21.0749C15.209 21.0749 13.115 18.0419 11.941 14.5979C11.706 13.8979 11.452 13.6979 10.786 13.6979H8.22299C8.13858 13.693 8.05407 13.7057 7.97482 13.7352C7.89557 13.7646 7.82332 13.8102 7.7626 13.8691C7.70188 13.9279 7.65404 13.9987 7.6221 14.077C7.59015 14.1553 7.57478 14.2393 7.57699 14.3239C7.57699 15.0089 8.37699 18.1789 11.53 22.4239C13.643 25.2809 16.422 26.8239 18.93 26.8239C20.456 26.8239 20.83 26.5699 20.83 25.9239V23.7319C20.83 23.1839 21.045 22.9489 21.358 22.9489C21.71 22.9489 22.332 23.0619 23.784 24.4949C25.506 26.1389 25.623 26.8229 26.563 26.8229H29.439C29.732 26.8229 30.006 26.6859 30.006 26.1969C30.006 25.5509 29.165 24.3969 27.873 23.0269C27.345 22.3269 26.484 21.5598 26.21 21.2068C25.819 20.7958 25.936 20.5609 26.21 20.1309L26.204 20.1378Z" fill="white"/>
</svg>
