<svg width="18" height="30" viewBox="0 0 18 30" fill="none" xmlns="http://www.w3.org/2000/svg">
<path d="M8.81032 0.0532232C4.47046 0.0516158 0.950853 3.51087 0.949219 7.77867C0.947585 12.0481 4.46392 15.5105 8.80215 15.5121C13.142 15.5138 16.6616 12.0545 16.6633 7.78671C16.6633 7.7851 16.6633 7.78349 16.6633 7.78349C16.6616 3.5173 13.1469 0.059653 8.81032 0.0532232ZM8.81032 10.9807C7.01457 10.9791 5.56032 9.54526 5.56196 7.77867C5.56359 6.01207 7.02111 4.58143 8.81686 4.58304C10.6126 4.58465 12.0669 6.0185 12.0652 7.78349C12.0603 9.55009 10.6061 10.9791 8.81032 10.9807Z" fill="white"/>
<path d="M11.9868 21.8101C13.6012 21.4468 15.1437 20.8199 16.5473 19.9535C17.6306 19.3009 17.9721 17.9088 17.3087 16.8415C16.6453 15.7757 15.2303 15.4397 14.1453 16.0924C14.1306 16.102 14.1143 16.1117 14.0996 16.1197C10.8643 18.1097 6.75974 18.1097 3.52446 16.1197C2.4493 15.4558 1.031 15.7725 0.3529 16.827V16.8318C-0.321934 17.8895 -3.57626e-05 19.2848 1.07186 19.9519C2.47544 20.8183 4.01628 21.4468 5.63229 21.8085L1.23852 26.131C0.339835 27.0151 0.339835 28.4489 1.23852 29.333C2.13721 30.2171 3.59472 30.2171 4.49341 29.333L8.81038 25.0861L13.1274 29.333C14.0244 30.2155 15.4787 30.2155 16.3757 29.333C17.2744 28.4521 17.276 27.0215 16.3806 26.1374L16.3757 26.1326L11.9868 21.8101Z" fill="white"/>
</svg>
