<svg width="40" height="40" viewBox="0 0 40 40" fill="none" xmlns="http://www.w3.org/2000/svg">
<path d="M40.0002 19.9998C40.0002 8.95406 31.0459 -0.000244141 20.0002 -0.000244141C8.95455 -0.000244141 0.000244141 8.95406 0.000244141 19.9998C0.000244141 31.0455 8.95455 39.9998 20.0002 39.9998C31.0459 39.9998 40.0002 31.0455 40.0002 19.9998Z" fill="url(#paint0_linear)"/>
<path d="M29.6037 11.3281C29.5165 11.3283 29.4301 11.3446 29.3487 11.3761L7.24874 19.7761C7.11167 19.8282 6.99404 19.9214 6.91191 20.0429C6.82979 20.1644 6.78718 20.3083 6.78992 20.4549C6.79265 20.6015 6.8406 20.7437 6.92719 20.8621C7.01379 20.9804 7.13482 21.0691 7.27374 21.1161L12.3967 22.8471L15.4857 29.0301V29.0351L15.4937 29.0511C15.5212 29.1073 15.5639 29.1548 15.6169 29.188C15.6699 29.2212 15.7312 29.2389 15.7937 29.2391C15.8716 29.2389 15.9468 29.2109 16.0057 29.1601L18.8997 26.7061L15.6687 24.2531L15.9217 27.4741L13.5987 22.6641L25.9457 15.2481L15.6687 24.2531L23.6687 30.3241C23.8605 30.4703 24.0855 30.5665 24.3237 30.6041C24.5618 30.6417 24.8056 30.6194 25.033 30.5394C25.2604 30.4594 25.4644 30.324 25.6265 30.1456C25.7886 29.9671 25.9038 29.7512 25.9617 29.5171L30.2867 12.2171C30.3134 12.1125 30.3159 12.0032 30.2942 11.8975C30.2725 11.7917 30.227 11.6923 30.1612 11.6067C30.0954 11.5211 30.0111 11.4515 29.9145 11.4033C29.818 11.355 29.7117 11.3293 29.6037 11.3281Z" fill="white"/>
<defs>
<linearGradient id="paint0_linear" x1="3.36024" y1="3.35976" x2="36.6402" y2="36.6398" gradientUnits="userSpaceOnUse">
<stop stop-color="#00AFE5"/>
<stop offset="1" stop-color="#0094D4"/>
</linearGradient>
</defs>
</svg>
