<svg width="26" height="21" viewBox="0 0 26 21" fill="none" xmlns="http://www.w3.org/2000/svg">
<path d="M8.0359 20.5955C17.6878 20.5955 22.9672 12.7286 22.9672 5.90651C22.9672 5.68307 22.9623 5.45964 22.9508 5.2362C23.977 4.50481 24.8642 3.59981 25.5701 2.563C24.611 2.97933 23.5946 3.2526 22.5538 3.37476C23.6502 2.73017 24.4704 1.71426 24.861 0.516702C23.8316 1.1195 22.7041 1.54387 21.5293 1.76891C19.5489 -0.311139 16.2287 -0.41884 14.1127 1.5294C13.0538 2.50513 12.4525 3.86825 12.4525 5.29568C12.4509 5.69111 12.4967 6.08655 12.5914 6.47234C8.37087 6.26176 4.43788 4.30066 1.77123 1.07449C0.380711 3.43424 1.09313 6.45144 3.39867 7.96727C2.56534 7.94155 1.75162 7.71973 1.0245 7.31947V7.38698C1.02613 9.84479 2.78756 11.9618 5.2369 12.4505C4.46403 12.6562 3.65357 12.6852 2.86763 12.5373C3.55553 14.6414 5.52448 16.0817 7.7712 16.1251C5.91173 17.559 3.61435 18.337 1.25162 18.3338C0.833324 18.3354 0.416664 18.3113 0 18.263C2.39214 19.7901 5.18298 20.5987 8.0359 20.5955Z" fill="white"/>
</svg>
