<svg width="36" height="43" viewBox="0 0 36 43" fill="none" xmlns="http://www.w3.org/2000/svg">
<path d="M2.75649 14.4711C2.41735 14.4649 2.08054 14.5283 1.76683 14.6572C1.45312 14.7862 1.16917 14.9781 0.932484 15.2211C0.691104 15.454 0.500018 15.7338 0.371022 16.0434C0.242026 16.353 0.177859 16.6857 0.182484 17.0211V27.7681C0.180495 28.1067 0.24571 28.4424 0.374348 28.7556C0.502987 29.0689 0.692495 29.3535 0.931897 29.593C1.1713 29.8325 1.45584 30.0221 1.76903 30.1509C2.08223 30.2796 2.41786 30.345 2.75649 30.3431C3.09393 30.3499 3.42912 30.2868 3.74098 30.1577C4.05283 30.0287 4.33458 29.8364 4.56849 29.5931C4.80814 29.3544 4.99699 29.0696 5.12365 28.756C5.25031 28.4424 5.31217 28.1063 5.30549 27.7681V17.0201C5.30259 16.3448 5.03297 15.698 4.55535 15.2205C4.07773 14.7431 3.4308 14.4737 2.75549 14.4711H2.75649Z" fill="#CCCCD1"/>
<path d="M23.4555 4.82402L25.2255 1.55002C25.2556 1.51072 25.2766 1.46511 25.2866 1.4166C25.2967 1.36808 25.2957 1.31791 25.2837 1.26984C25.2717 1.22176 25.249 1.17703 25.2172 1.13896C25.1855 1.1009 25.1456 1.0705 25.1005 1.05002C25.0586 1.02361 25.0116 1.00647 24.9626 0.999771C24.9136 0.993069 24.8637 0.996958 24.8163 1.01117C24.7689 1.02539 24.7251 1.0496 24.6879 1.08218C24.6507 1.11476 24.6208 1.15494 24.6005 1.20002L22.8005 4.50002C21.2162 3.80701 19.5057 3.44926 17.7765 3.44926C16.0472 3.44926 14.3367 3.80701 12.7525 4.50002L10.9555 1.20002C10.935 1.15506 10.9051 1.11499 10.8678 1.08251C10.8306 1.05003 10.7868 1.02587 10.7395 1.01167C10.6921 0.997471 10.6423 0.993545 10.5933 1.00016C10.5443 1.00677 10.4973 1.02377 10.4555 1.05002C10.4103 1.0705 10.3704 1.1009 10.3387 1.13896C10.307 1.17703 10.2842 1.22176 10.2722 1.26984C10.2602 1.31791 10.2592 1.36808 10.2693 1.4166C10.2794 1.46511 10.3003 1.51072 10.3305 1.55002L12.1055 4.82402C10.3555 5.6965 8.87081 7.02131 7.80546 8.66102C6.75191 10.2589 6.19517 12.1331 6.20546 14.047H29.3235C29.3336 12.1331 28.7768 10.259 27.7235 8.66102C26.6654 7.02689 25.1926 5.70282 23.4555 4.82402ZM13.1955 9.58502C13.1066 9.67757 12.9997 9.75089 12.8814 9.80043C12.763 9.84997 12.6357 9.87468 12.5075 9.87302C12.381 9.87551 12.2554 9.85113 12.139 9.80148C12.0227 9.75183 11.9182 9.67806 11.8325 9.58502C11.6569 9.39936 11.5591 9.15354 11.5591 8.89802C11.5591 8.64251 11.6569 8.39669 11.8325 8.21102C11.9185 8.11848 12.0231 8.04509 12.1394 7.99564C12.2557 7.94619 12.3811 7.92179 12.5075 7.92402C12.7003 7.92307 12.8891 7.97957 13.0497 8.08632C13.2104 8.19307 13.3356 8.34524 13.4094 8.52343C13.4832 8.70162 13.5023 8.89775 13.4642 9.08682C13.4261 9.27589 13.3325 9.44933 13.1955 9.58502ZM23.7295 9.58502C23.6435 9.67775 23.539 9.75133 23.4226 9.80095C23.3063 9.85057 23.1809 9.87513 23.0545 9.87302C22.8014 9.86492 22.5614 9.7587 22.3853 9.57683C22.2092 9.39496 22.1107 9.1517 22.1107 8.89852C22.1107 8.64534 22.2092 8.40209 22.3853 8.22022C22.5614 8.03835 22.8014 7.93213 23.0545 7.92402C23.1808 7.92179 23.3062 7.94619 23.4225 7.99564C23.5388 8.04509 23.6434 8.11848 23.7295 8.21102C23.905 8.39669 24.0028 8.64251 24.0028 8.89802C24.0028 9.15354 23.905 9.39936 23.7295 9.58502Z" fill="#CCCCD1"/>
<path d="M6.30549 31.5958C6.30283 31.9576 6.37212 32.3162 6.50933 32.6509C6.64654 32.9857 6.84893 33.2898 7.10473 33.5456C7.36053 33.8014 7.66463 34.0038 7.99936 34.141C8.33408 34.2782 8.69275 34.3475 9.05449 34.3448H10.9045L10.9295 40.0188C10.9232 40.3581 10.9865 40.6951 11.1155 41.009C11.2445 41.3229 11.4364 41.607 11.6795 41.8438C11.9123 42.0852 12.1922 42.2763 12.5018 42.4053C12.8114 42.5343 13.1441 42.5984 13.4795 42.5938C13.8181 42.5957 14.1537 42.5303 14.4669 42.4016C14.7801 42.2728 15.0647 42.0832 15.3041 41.8437C15.5435 41.6042 15.733 41.3196 15.8616 41.0063C15.9903 40.6931 16.0555 40.3574 16.0535 40.0188V34.3448H19.5025V40.0188C19.5025 40.3568 19.5691 40.6915 19.6984 41.0038C19.8278 41.3161 20.0174 41.5999 20.2564 41.8389C20.4954 42.0779 20.7792 42.2675 21.0915 42.3969C21.4038 42.5262 21.7385 42.5928 22.0765 42.5928C22.4145 42.5928 22.7492 42.5262 23.0615 42.3969C23.3738 42.2675 23.6576 42.0779 23.8966 41.8389C24.1356 41.5999 24.3252 41.3161 24.4546 41.0038C24.5839 40.6915 24.6505 40.3568 24.6505 40.0188V34.3448H26.5255C26.8851 34.344 27.241 34.2722 27.5728 34.1335C27.9045 33.9947 28.2056 33.7918 28.4588 33.5364C28.7119 33.2809 28.912 32.978 29.0477 32.645C29.1834 32.312 29.252 31.9554 29.2495 31.5958V14.9458H6.30549V31.5958Z" fill="#CCCCD1"/>
<path d="M32.7984 14.4712C32.4642 14.4662 32.1324 14.5289 31.8231 14.6556C31.5137 14.7822 31.2332 14.9702 30.9984 15.2082C30.7551 15.442 30.5628 15.7238 30.4337 16.0356C30.3046 16.3475 30.2416 16.6827 30.2484 17.0202V27.7672C30.242 28.1065 30.3053 28.4435 30.4343 28.7574C30.5633 29.0713 30.7553 29.3554 30.9984 29.5922C31.2313 29.8335 31.5112 30.0245 31.8208 30.1535C32.1303 30.2825 32.4631 30.3467 32.7984 30.3422C33.137 30.344 33.4727 30.2787 33.7859 30.1499C34.0991 30.0211 34.3836 29.8315 34.623 29.592C34.8624 29.3525 35.0519 29.0679 35.1806 28.7547C35.3092 28.4414 35.3744 28.1058 35.3724 27.7672V17.0202C35.3793 16.6827 35.3162 16.3475 35.1872 16.0356C35.0581 15.7238 34.8658 15.442 34.6224 15.2082C34.3838 14.9687 34.0992 14.7799 33.7858 14.6533C33.4723 14.5266 33.1364 14.4647 32.7984 14.4712Z" fill="#CCCCD1"/>
</svg>
