<svg width="40" height="40" viewBox="0 0 40 40" fill="none" xmlns="http://www.w3.org/2000/svg">
<path d="M20 40C31.0457 40 40 31.0457 40 20C40 8.9543 31.0457 0 20 0C8.9543 0 0 8.9543 0 20C0 31.0457 8.9543 40 20 40Z" fill="#E77A3D"/>
<path d="M33 7H7V33H33V7Z" fill="white"/>
<path d="M20.07 17.0441C20.648 17.0407 21.2121 16.8658 21.6906 16.5415C22.1692 16.2173 22.5408 15.7583 22.7583 15.2227C22.9758 14.6871 23.0294 14.099 22.9123 13.5329C22.7953 12.9668 22.5129 12.4482 22.1008 12.0428C21.6888 11.6373 21.1657 11.3633 20.5978 11.2554C20.0299 11.1475 19.4427 11.2106 18.9107 11.4367C18.3787 11.6628 17.9258 12.0417 17.6093 12.5255C17.2928 13.0092 17.127 13.576 17.133 14.1541C17.1343 14.5372 17.2115 14.9162 17.3601 15.2694C17.5087 15.6225 17.7259 15.9427 17.9989 16.2114C18.272 16.4801 18.5957 16.692 18.9511 16.835C19.3066 16.9779 19.6869 17.0489 20.07 17.0441Z" fill="#E77A3D"/>
<path d="M33.0029 5.45606H7.10594C6.69724 5.45606 6.30528 5.61841 6.01629 5.90741C5.7273 6.1964 5.56494 6.58836 5.56494 6.99706V32.8971C5.56494 33.3058 5.7273 33.6977 6.01629 33.9867C6.30528 34.2757 6.69724 34.4381 7.10594 34.4381H33.0059C33.4146 34.4381 33.8066 34.2757 34.0956 33.9867C34.3846 33.6977 34.5469 33.3058 34.5469 32.8971V6.99706C34.5469 6.79444 34.507 6.59381 34.4294 6.40665C34.3517 6.21949 34.2379 6.04948 34.0945 5.90634C33.9511 5.76321 33.7809 5.64976 33.5936 5.5725C33.4063 5.49523 33.2056 5.45566 33.0029 5.45606ZM20.0789 8.15606C21.2585 8.16021 22.4103 8.51392 23.3889 9.17247C24.3674 9.83103 25.1288 10.7649 25.5768 11.856C26.0249 12.9472 26.1394 14.1466 25.9059 15.3028C25.6725 16.459 25.1015 17.5201 24.2652 18.3519C23.4289 19.1837 22.3648 19.749 21.2074 19.9762C20.05 20.2035 18.8511 20.0826 17.7624 19.6287C16.6737 19.1749 15.7439 18.4085 15.0906 17.4264C14.4373 16.4443 14.0898 15.2906 14.0919 14.1111C14.0936 13.3268 14.2499 12.5506 14.5518 11.8268C14.8536 11.103 15.2952 10.4458 15.8512 9.89272C16.4073 9.33967 17.0668 8.90163 17.7923 8.60364C18.5177 8.30565 19.2947 8.15356 20.0789 8.15606ZM26.7649 22.4341C26.0348 23.1709 25.1536 23.7407 24.1819 24.1041C23.2355 24.4432 22.2506 24.6639 21.2499 24.7611C21.4009 24.9261 21.4719 25.0051 21.5659 25.1011C22.9239 26.4651 24.2869 27.8241 25.6399 29.1921C25.8545 29.3886 25.9997 29.6493 26.0538 29.9351C26.1079 30.221 26.0679 30.5168 25.9399 30.7781C25.8089 31.0659 25.5958 31.3088 25.3274 31.4761C25.059 31.6435 24.7471 31.728 24.4309 31.7191C24.0629 31.682 23.7223 31.5078 23.4769 31.2311C22.4519 30.2001 21.4079 29.1881 20.4049 28.1391C20.1129 27.8331 19.9719 27.8901 19.7139 28.1561C18.6833 29.2174 17.6396 30.2657 16.5829 31.3011C16.3876 31.5177 16.1257 31.6633 15.8386 31.7147C15.5514 31.7661 15.2553 31.7205 14.9969 31.5851C14.7165 31.4546 14.4799 31.2457 14.3157 30.9835C14.1515 30.7214 14.0669 30.4173 14.0719 30.1081C14.1035 29.7253 14.2829 29.3699 14.5719 29.1171C15.9146 27.7757 17.2556 26.4324 18.5949 25.0871C18.6839 24.9981 18.7669 24.9031 18.8949 24.7651C17.1322 24.6668 15.4355 24.0612 14.0089 23.0211C13.8339 22.8841 13.6529 22.7511 13.4929 22.5981C13.3492 22.4823 13.2301 22.339 13.1424 22.1766C13.0548 22.0142 13.0005 21.8359 12.9828 21.6522C12.965 21.4685 12.984 21.2832 13.0388 21.1069C13.0937 20.9307 13.1831 20.7672 13.3019 20.6261C13.5019 20.3375 13.8029 20.1347 14.1453 20.0576C14.4878 19.9806 14.8467 20.035 15.1509 20.2101C15.2906 20.2786 15.4244 20.3585 15.5509 20.4491C16.8582 21.3371 18.3988 21.8186 19.979 21.8332C21.5593 21.8478 23.1085 21.3948 24.4319 20.5311C24.6866 20.3244 24.981 20.1722 25.2969 20.0841C25.5881 19.9987 25.8996 20.0133 26.1814 20.1257C26.4633 20.2381 26.6994 20.4417 26.8519 20.7041C27.0499 20.9539 27.1502 21.2671 27.1342 21.5854C27.1182 21.9038 26.9869 22.2054 26.7649 22.4341Z" fill="#E77A3D"/>
</svg>
