<svg width="31" height="30" viewBox="0 0 31 30" fill="none" xmlns="http://www.w3.org/2000/svg">
<path d="M15.2466 1.06784C23.0717 1.06784 29.4149 7.30799 29.4149 15.0061C29.4149 22.7042 23.0717 28.9444 15.2466 28.9444C7.42152 28.9444 1.07843 22.7042 1.07843 15.0061C1.08823 7.31121 7.42642 1.07588 15.2466 1.06784ZM15.2466 0.000488281C6.82675 0.000488281 0 6.71645 0 14.9997C0 23.2829 6.82675 29.9989 15.2466 29.9989C23.6665 29.9989 30.4933 23.2829 30.4933 14.9997C30.4933 6.71484 23.6665 0.000488281 15.2466 0.000488281Z" fill="white"/>
<path d="M21.8219 8.41699C21.7614 8.41699 21.7009 8.42824 21.6454 8.44914L6.29906 14.1878C6.04416 14.2842 5.9167 14.5655 6.01474 14.8163C6.06703 14.9513 6.17815 15.0558 6.31704 15.1024L9.87584 16.2839L12.0229 20.5083V20.5131L12.0278 20.5244C12.067 20.6015 12.1454 20.6514 12.232 20.6546C12.2876 20.6546 12.3399 20.6353 12.3824 20.5999L14.3922 18.9233L12.1503 17.2468L12.3268 19.4474L10.7157 16.1585L19.2892 11.0902L12.1553 17.2419L17.7124 21.3908C17.8873 21.5226 18.1013 21.5933 18.3203 21.5917C18.7859 21.5933 19.1912 21.2831 19.3055 20.841L22.3104 9.0214C22.3709 8.75456 22.1993 8.48933 21.9281 8.42824C21.8938 8.42181 21.8578 8.41699 21.8219 8.41699Z" fill="white"/>
</svg>
