<svg width="40" height="40" viewBox="0 0 40 40" fill="none" xmlns="http://www.w3.org/2000/svg">
<path d="M31.7767 19.9997C31.7767 26.4804 26.5034 31.7342 20.0004 31.7342C13.4963 31.7342 8.22412 26.4804 8.22412 19.9997C8.22412 13.519 13.4963 8.26489 20.0004 8.26489C26.5034 8.26526 31.7767 13.519 31.7767 19.9997Z" fill="white"/>
<path d="M10.9058 22.8925V17.2825H12.7854L13.998 19.1314L15.1465 17.2825H16.9913V22.8925H15.1465V19.7373L14.2232 21.2017H13.6469L12.7854 19.9214V22.8925H10.9058Z" fill="black"/>
<path d="M19.8952 22.8925L21.487 20.3102V22.8925H23.3685V17.2825H21.487L19.8952 19.9291V17.2825H18.0137V22.8925H19.8952Z" fill="black"/>
<path d="M26.7482 20.3747C27.1589 20.3747 27.6412 20.2151 27.6412 19.3862C27.6412 18.7495 27.2226 18.5906 26.7482 18.5906H26.2678V20.3747H26.7482ZM24.3875 22.8925V17.2825H27.0649C28.3056 17.2825 29.5208 17.8891 29.5208 19.3866C29.5208 21.011 28.2423 21.6807 27.0649 21.6807H26.2682V22.8929H24.3875V22.8925Z" fill="black"/>
<path d="M30.4158 15.6843L38.4717 12.3468C36.5139 7.61981 32.7524 3.64055 27.651 1.52759L24.3169 9.58277C27.0676 10.7261 29.2717 12.9287 30.4158 15.6843Z" fill="#B2D237"/>
<path d="M9.58302 24.3135L1.5271 27.6483C3.48599 32.3768 7.24562 36.3601 12.3471 38.4713L15.6864 30.412C12.9301 29.2687 10.7241 27.0664 9.58302 24.3135Z" fill="#1383C6"/>
<path d="M8.72737 19.9988C8.72737 18.4714 9.03181 17.0143 9.5833 15.684L1.52737 12.3462C-0.430037 17.0725 -0.586704 22.548 1.52737 27.648L9.5833 24.3132C9.03218 22.9851 8.72737 21.5295 8.72737 19.9988Z" fill="#1D93D1"/>
<path d="M19.9991 31.2684C18.4714 31.2684 17.0143 30.964 15.6843 30.4121L12.3469 38.4713C17.4469 40.585 22.924 40.4317 27.6503 38.4713L24.3136 30.4121C22.9843 30.964 21.5295 31.2684 19.9991 31.2684Z" fill="#1D93D1"/>
<path d="M15.6841 9.58277L12.3471 1.52759C7.24525 3.64055 3.48599 7.61981 1.5271 12.3465L9.58302 15.6839C10.7241 12.9287 12.9301 10.7261 15.6841 9.58277Z" fill="#00AB6C"/>
<path d="M30.4158 24.3135C29.2717 27.0664 27.068 29.2687 24.3169 30.412L27.651 38.4713C32.7524 36.3601 36.5143 32.3768 38.4717 27.6483L30.4158 24.3135Z" fill="#00AB6C"/>
<path d="M38.4712 12.3462L30.4153 15.6836C30.9638 17.0121 31.2738 18.471 31.2738 19.9984C31.2738 21.5266 30.9642 22.9847 30.4153 24.3132L38.4712 27.648C40.4313 22.9221 40.5868 17.4503 38.4712 12.3462Z" fill="#8CC541"/>
<path d="M19.9991 8.72689C21.5295 8.72689 22.9843 9.03171 24.3136 9.58282L27.6503 1.52763C22.5477 -0.585701 17.0747 -0.431257 12.3469 1.52763L15.6843 9.58282C17.0147 9.03171 18.4717 8.72689 19.9991 8.72689Z" fill="#8CC541"/>
</svg>
