<svg width="50" height="50" viewBox="0 0 50 50" fill="none" xmlns="http://www.w3.org/2000/svg">
<path d="M39.5799 25C39.5805 27.9014 38.7206 30.7379 37.1091 33.1506C35.4976 35.5634 33.2068 37.4441 30.5264 38.5548C27.846 39.6656 24.8964 39.9565 22.0506 39.3909C19.2048 38.8252 16.5907 37.4283 14.5389 35.3769C12.487 33.3255 11.0896 30.7117 10.5233 27.866C9.95704 25.0204 10.2474 22.0707 11.3576 19.3901C12.4678 16.7094 14.348 14.4182 16.7604 12.8062C19.1728 11.1942 22.0091 10.3337 24.9105 10.3337C28.8005 10.3337 32.5313 11.8788 35.2822 14.6292C38.0332 17.3796 39.579 21.11 39.5799 25Z" fill="white"/>
<path d="M37.8832 19.6052L47.9193 15.4408C46.6748 12.4099 44.8434 9.65486 42.5305 7.33405C40.2177 5.01325 37.4689 3.17245 34.4423 1.91748L30.2887 11.9782C33.7276 13.4186 36.4575 16.1602 37.8832 19.6052Z" fill="#B2D237"/>
<path d="M11.9363 30.3923L1.91101 34.5567C3.1536 37.5889 4.98327 40.3455 7.29482 42.6682C9.60637 44.9909 12.3542 46.8337 15.3804 48.0908L19.5447 38.0131C16.1023 36.5781 13.3683 33.838 11.9409 30.3923" fill="#1383C6"/>
<path d="M10.872 24.9989C10.869 23.1471 11.2307 21.3128 11.9363 19.6006L1.91096 15.4363C0.655069 18.468 0.00866699 21.7173 0.00866699 24.9989C0.00866699 28.2804 0.655069 31.5298 1.91096 34.5615L11.944 30.3971C11.2376 28.6852 10.876 26.8508 10.8797 24.9989" fill="#1D93D1"/>
<path d="M24.9106 39.0849C23.0655 39.0876 21.2384 38.7232 19.5355 38.0129L15.3804 48.0907C18.3998 49.3514 21.6393 50.0006 24.9113 50.0006C28.1834 50.0006 31.4229 49.3514 34.4423 48.0907L30.2857 38.0129C28.583 38.7239 26.7557 39.0884 24.9106 39.0849Z" fill="#1D93D1"/>
<path d="M19.5354 11.9781L15.3803 1.90967C12.3536 3.16464 9.60489 5.00543 7.29202 7.32624C4.97915 9.64705 3.14779 12.4021 1.9032 15.433L11.9362 19.6051C13.3629 16.1591 16.0947 13.4174 19.5354 11.9781Z" fill="#00AB6C"/>
<path d="M37.8832 30.3923C36.4572 33.8357 33.7271 36.5752 30.2887 38.0131L34.4423 48.0908C37.4694 46.8351 40.2185 44.9933 42.5314 42.6714C44.8443 40.3495 46.6754 37.5933 47.9193 34.5613L37.8832 30.3923Z" fill="#00AB6C"/>
<path d="M47.9194 15.4329L37.8833 19.605C39.3104 23.0591 39.3104 26.9381 37.8833 30.3922L47.9194 34.5566C49.1753 31.5249 49.8217 28.2755 49.8217 24.994C49.8217 21.7125 49.1753 18.4631 47.9194 15.4314" fill="#8CC541"/>
<path d="M24.9106 10.9078C26.7554 10.9063 28.5822 11.2701 30.2857 11.9782L34.4423 1.90973C31.4228 0.649423 28.1833 0.000488281 24.9113 0.000488281C21.6394 0.000488281 18.3999 0.649423 15.3804 1.90973L19.5355 11.9782C21.2391 11.2707 23.0658 10.9069 24.9106 10.9078Z" fill="#8CC541"/>
<path fill-rule="evenodd" clip-rule="evenodd" d="M16.5263 22.0252V22.9984H15.8044V18.7354H16.5263V19.0593C17.4131 18.322 19.3796 18.4948 19.3796 20.3934C19.3796 22.3645 17.4131 22.7362 16.5263 22.0252ZM21.9723 21.979C21.1179 22.69 19.5878 22.3645 19.5878 21.2695C19.5878 20.0973 21.0469 20.0726 21.9646 19.9554C21.8767 18.976 20.7832 19.2875 20.231 19.6916L19.9225 19.0855C20.9081 18.4084 22.6988 18.393 22.6988 20.0325V22.2782H21.9769V21.979H21.9723ZM26.2323 22.2782H23.7167V22.5974H23.0257V21.6242H23.4437C24.0159 20.8314 23.9296 19.6963 23.9573 18.7354H26.3634V21.6242H26.9264V22.5974H26.2323V22.2782ZM29.7967 19.9785L27.7916 22.2782H27.2734V18.7308H27.9952V20.9456L29.9216 18.7354H30.5216V22.2828H29.7967V19.9785ZM32.8012 22.3537C35.3615 22.3537 35.3862 18.6521 32.8397 18.6521C30.2085 18.6521 30.2177 22.3537 32.8012 22.3537ZM17.5828 21.7013C18.8676 21.7245 19.0326 19.3338 17.6661 19.3107C16.2163 19.2875 16.19 21.6766 17.5828 21.7013ZM21.9723 20.6109C21.2011 20.7081 20.3266 20.6772 20.3266 21.2571C20.3266 21.9219 21.9723 21.9712 21.9723 20.6109ZM25.6416 19.3878H24.6298C24.5774 20.159 24.6113 20.9302 24.2581 21.6242H25.6462V19.3878H25.6416ZM32.8259 19.3107C34.3096 19.3107 34.2957 21.6782 32.8104 21.7013C31.265 21.7245 31.2835 19.3338 32.8259 19.3107Z" fill="#1383C6"/>
<path fill-rule="evenodd" clip-rule="evenodd" d="M17.6198 25.8331L16.1145 23.6152H13.8271V30.5851H16.1638V26.8927L17.2743 28.5338H17.9668L19.0727 26.8927V30.5851H21.397V23.6152H19.1251L17.626 25.8331H17.6198ZM33.5199 27.4542C34.0304 27.4542 34.6289 27.2552 34.6289 26.2203C34.6289 25.429 34.1091 25.2316 33.5199 25.2316H32.9215V27.4542H33.5199ZM24.7917 30.5851L26.9803 27.377V30.5851H29.3185V23.6152H27.1824L25.0015 26.9035V23.6152H22.6617V30.5851H24.7917ZM30.5848 30.5851V23.6152H33.9117C35.454 23.6152 36.9655 24.3694 36.9655 26.2295C36.9655 28.2469 35.3769 29.0798 33.9117 29.0798H32.9215V30.5851H30.5848Z" fill="black"/>
</svg>
