<svg width="40" height="40" viewBox="0 0 40 40" fill="none" xmlns="http://www.w3.org/2000/svg">
<path d="M32.0067 20.0002C32.0067 26.6073 26.6304 31.9636 20.0004 31.9636C13.3693 31.9636 7.99414 26.6073 7.99414 20.0002C7.99414 13.3928 13.3693 8.03613 20.0004 8.03613C26.6304 8.0365 32.0067 13.3928 32.0067 20.0002Z" fill="white"/>
<path d="M11.1533 21.4128V15.8027H13.033L14.2455 17.6516L15.3941 15.8027H17.2389V21.4128H15.3941V18.2576L14.4707 19.7224H13.8944L13.033 18.4416V21.4128H11.1533Z" fill="black"/>
<path d="M20.1424 21.4128L21.7342 18.8305V21.4128H23.6157V15.8027H21.7342L20.1424 18.4494V15.8027H18.2609V21.4128H20.1424Z" fill="black"/>
<path d="M26.9959 18.8953C27.4066 18.8953 27.8888 18.7357 27.8888 17.9068C27.8888 17.2701 27.4703 17.1112 26.9959 17.1112H26.5155V18.8953H26.9959ZM24.6348 21.4127V15.8027H27.3122C28.5529 15.8027 29.7681 16.4094 29.7681 17.9068C29.7681 19.5312 28.4896 20.2009 27.3122 20.2009H26.5155V21.4131H24.6348V21.4127Z" fill="black"/>
<path d="M30.4153 15.684L38.4712 12.3466C36.5134 7.61957 32.7519 3.64031 27.6505 1.52734L24.3164 9.58253C27.0671 10.7259 29.2712 12.9285 30.4153 15.684Z" fill="#B2D237"/>
<path d="M9.58327 24.3135L1.52734 27.6483C3.48623 32.3768 7.24586 36.3601 12.3473 38.4713L15.6866 30.412C12.9303 29.2687 10.7244 27.0664 9.58327 24.3135Z" fill="#1383C6"/>
<path d="M8.72737 19.9993C8.72737 18.4719 9.03181 17.0148 9.5833 15.6845L1.52737 12.3467C-0.430037 17.073 -0.586704 22.5485 1.52737 27.6485L9.5833 24.3137C9.03218 22.9856 8.72737 21.53 8.72737 19.9993Z" fill="#1D93D1"/>
<path d="M19.9989 31.2684C18.4711 31.2684 17.0141 30.964 15.6841 30.4121L12.3467 38.4713C17.4467 40.585 22.9237 40.4317 27.65 38.4713L24.3133 30.4121C22.9841 30.964 21.5293 31.2684 19.9989 31.2684Z" fill="#1D93D1"/>
<path d="M15.6844 9.58253L12.3473 1.52734C7.24549 3.64031 3.48623 7.61957 1.52734 12.3462L9.58327 15.6836C10.7244 12.9285 12.9303 10.7259 15.6844 9.58253Z" fill="#00AB6C"/>
<path d="M30.4153 24.3135C29.2712 27.0664 27.0675 29.2687 24.3164 30.412L27.6505 38.4713C32.7519 36.3601 36.5138 32.3768 38.4712 27.6483L30.4153 24.3135Z" fill="#00AB6C"/>
<path d="M38.471 12.3467L30.415 15.6841C30.9636 17.0126 31.2736 18.4715 31.2736 19.9989C31.2736 21.527 30.9639 22.9852 30.415 24.3137L38.471 27.6485C40.431 22.9226 40.5866 17.4508 38.471 12.3467Z" fill="#8CC541"/>
<path d="M19.9989 8.72689C21.5293 8.72689 22.9841 9.03171 24.3133 9.58282L27.65 1.52763C22.5474 -0.585701 17.0745 -0.431257 12.3467 1.52763L15.6841 9.58282C17.0145 9.03171 18.4715 8.72689 19.9989 8.72689Z" fill="#8CC541"/>
<path d="M11.1533 22.6467C11.1533 22.6175 11.1615 22.5938 11.1774 22.5763C11.1933 22.5589 11.2163 22.55 11.247 22.55H12.2004C12.3152 22.55 12.4207 22.5723 12.5178 22.6171C12.6148 22.6619 12.6985 22.7215 12.7689 22.796C12.8392 22.8708 12.8944 22.9571 12.9341 23.0556C12.9737 23.1541 12.9937 23.2563 12.9937 23.3626C12.9937 23.4667 12.9744 23.5671 12.9359 23.6638C12.897 23.7604 12.8429 23.846 12.7733 23.9208C12.7037 23.9956 12.6207 24.0552 12.5248 24.0997C12.4289 24.1445 12.3241 24.1667 12.2107 24.1667H11.6574V24.9793C11.6574 25.0393 11.6267 25.0693 11.5655 25.0693H11.2455C11.2159 25.0693 11.1933 25.0615 11.1774 25.0463C11.1615 25.0312 11.1533 25.0086 11.1533 24.9793V22.6467ZM12.4848 23.3593C12.4848 23.313 12.4759 23.2678 12.4581 23.2238C12.4407 23.1797 12.4159 23.1404 12.3841 23.106C12.3522 23.0715 12.3148 23.0438 12.2718 23.023C12.2285 23.0023 12.1811 22.9915 12.1289 22.9915H11.6574V23.726H12.1289C12.18 23.726 12.2274 23.716 12.2711 23.6952C12.3148 23.6749 12.3526 23.6478 12.3844 23.6138C12.4163 23.5797 12.4411 23.5408 12.4585 23.4967C12.4759 23.4526 12.4848 23.4067 12.4848 23.3593Z" fill="black"/>
<path d="M13.6068 22.6318C13.6068 22.5773 13.632 22.5503 13.682 22.5503H14.7087C14.8253 22.5503 14.9342 22.5721 15.0346 22.6155C15.135 22.6592 15.222 22.7181 15.2961 22.7929C15.3698 22.8677 15.4276 22.9547 15.4698 23.0551C15.5116 23.1551 15.5327 23.2618 15.5327 23.3751C15.5327 23.4521 15.5227 23.5255 15.5031 23.5955C15.4831 23.6655 15.4553 23.731 15.4198 23.7914C15.3842 23.8521 15.3405 23.907 15.2894 23.957C15.2383 24.0066 15.1824 24.0492 15.1209 24.0844L15.555 24.9921C15.555 24.9944 15.5557 24.997 15.5568 24.9999C15.5579 25.0029 15.5583 25.0051 15.5583 25.0077C15.5583 25.0281 15.5531 25.0436 15.5424 25.0544C15.5316 25.0651 15.512 25.0703 15.4835 25.0703H15.0764C15.0461 25.0703 15.0242 25.0529 15.012 25.0177L14.6338 24.1899H14.1094V24.9992C14.1094 25.0466 14.0846 25.0703 14.0346 25.0703H13.6824C13.6616 25.0703 13.6442 25.0647 13.6294 25.0533C13.6146 25.0418 13.6072 25.024 13.6072 24.9992V22.6318H13.6068ZM15.0468 23.3714C15.0468 23.3284 15.0383 23.2859 15.0213 23.2433C15.0042 23.2007 14.9801 23.1625 14.949 23.1288C14.9176 23.0947 14.8801 23.0673 14.8364 23.0458C14.7927 23.0244 14.7442 23.0136 14.6909 23.0136H14.1087V23.7296H14.7027C14.7572 23.7296 14.8061 23.7199 14.849 23.7007C14.8924 23.6814 14.9283 23.6551 14.9572 23.6218C14.9861 23.5884 15.0083 23.5503 15.0235 23.5073C15.0394 23.4644 15.0468 23.4188 15.0468 23.3714Z" fill="black"/>
<path d="M16.2162 22.6318C16.2162 22.5773 16.2414 22.5503 16.2914 22.5503H17.9325C17.9621 22.5503 17.9833 22.5584 17.9955 22.5747C18.0077 22.591 18.014 22.6118 18.014 22.6366V22.9351C18.014 22.9555 18.007 22.9736 17.9929 22.9892C17.9784 23.0051 17.9573 23.0129 17.9288 23.0129H16.7184V23.5284H17.6514C17.6744 23.5262 17.6925 23.531 17.7058 23.5429C17.7192 23.5547 17.7262 23.5747 17.7262 23.6033V23.9103C17.7262 23.9307 17.7203 23.9488 17.7092 23.9644C17.6977 23.9803 17.6796 23.9881 17.6547 23.9881H16.7181V24.6055H17.9729C18.0047 24.6055 18.0255 24.6121 18.0359 24.6259C18.0462 24.6396 18.051 24.6603 18.051 24.6884V24.9973C18.051 25.0447 18.0262 25.0684 17.9762 25.0684H16.2906C16.2699 25.0684 16.2525 25.0629 16.2377 25.0514C16.2229 25.0399 16.2155 25.0221 16.2155 24.9973V22.6318H16.2162Z" fill="black"/>
<path d="M19.8552 25.0155C19.8393 25.0155 19.8237 25.007 19.8086 24.9899C19.793 24.9729 19.7815 24.957 19.7734 24.9425C19.6815 24.6936 19.5897 24.4466 19.4986 24.201C19.4071 23.9555 19.316 23.7084 19.2252 23.4596L19.0667 24.9814C19.0645 25.0084 19.0552 25.0299 19.0397 25.0459C19.0238 25.0618 19.0004 25.0696 18.9697 25.0696H18.6597C18.6004 25.0696 18.5712 25.0377 18.5712 24.9747L18.813 22.6388C18.8152 22.6151 18.8249 22.5944 18.8419 22.577C18.8589 22.5596 18.8812 22.5507 18.9082 22.5507H19.3049C19.3275 22.5507 19.3467 22.5577 19.3619 22.5718C19.3775 22.5858 19.3889 22.6044 19.3971 22.627C19.4434 22.757 19.4915 22.8892 19.5408 23.0229C19.5904 23.157 19.6389 23.2884 19.6863 23.4173L19.9997 24.2707L20.6008 22.6284V22.6299C20.6086 22.6029 20.6211 22.5829 20.6382 22.5699C20.6552 22.557 20.6752 22.5503 20.6978 22.5503H21.093C21.1189 22.5503 21.1408 22.5592 21.1585 22.5766C21.176 22.594 21.186 22.6147 21.1882 22.6384L21.43 24.9796C21.43 25.0092 21.4222 25.0314 21.4063 25.0466C21.3904 25.0618 21.3689 25.0696 21.3415 25.0696H21.0319C21.0023 25.0696 20.9797 25.0618 20.9637 25.0459C20.9478 25.0299 20.9385 25.0084 20.9363 24.9814L20.7763 23.4596L20.2315 24.9321C20.2223 24.9492 20.2093 24.9673 20.1923 24.9862C20.1752 25.0055 20.1586 25.0151 20.143 25.0151H19.8552V25.0155Z" fill="black"/>
<path d="M22.0234 22.6251C22.0234 22.6047 22.0297 22.5873 22.0423 22.5725C22.0549 22.5577 22.0734 22.5503 22.0986 22.5503H22.4423C22.4594 22.5503 22.4775 22.557 22.4968 22.5707C22.516 22.5844 22.5257 22.6025 22.5257 22.6251V24.9951C22.5257 25.0447 22.4979 25.0699 22.4423 25.0699H22.0986C22.0486 25.0699 22.0234 25.0451 22.0234 24.9951V22.6251Z" fill="black"/>
<path d="M23.7782 24.0735C23.7782 24.1528 23.7912 24.2272 23.8175 24.2976C23.8434 24.3676 23.8804 24.4291 23.9282 24.4817C23.976 24.5342 24.033 24.5757 24.0993 24.6065C24.166 24.6372 24.2386 24.6524 24.3182 24.6524C24.3978 24.6524 24.4704 24.6372 24.536 24.6065C24.6019 24.5761 24.6586 24.5342 24.7064 24.4817C24.7541 24.4291 24.7912 24.3676 24.8171 24.2976C24.8434 24.2276 24.8564 24.1528 24.8564 24.0735V22.6246C24.8564 22.6042 24.8641 22.5868 24.8793 22.572C24.8949 22.5572 24.9138 22.5498 24.9364 22.5498H25.2734C25.2938 22.5498 25.3134 22.5565 25.3316 22.5702C25.3497 22.5839 25.3586 22.602 25.3586 22.6246V24.0735C25.3586 24.2161 25.3316 24.3502 25.2767 24.4757C25.2223 24.6013 25.1475 24.7113 25.053 24.8057C24.9582 24.9002 24.8478 24.9746 24.7219 25.0287C24.596 25.0831 24.4616 25.1102 24.3182 25.1102C24.223 25.1102 24.1308 25.0976 24.0423 25.0728C23.9538 25.048 23.8708 25.0128 23.7938 24.9676C23.7164 24.9224 23.646 24.8683 23.5827 24.8054C23.519 24.7428 23.4645 24.6728 23.4193 24.5957C23.3741 24.5187 23.339 24.4361 23.3138 24.348C23.289 24.2598 23.2764 24.168 23.2764 24.0731V22.6242C23.2764 22.6072 23.283 22.5905 23.2967 22.5742C23.3104 22.558 23.3275 22.5498 23.3478 22.5498H23.7004C23.716 22.5498 23.733 22.5572 23.7516 22.572C23.7697 22.5868 23.7786 22.6042 23.7786 22.6246V24.0735H23.7782Z" fill="black"/>
<path d="M27.2054 25.0155C27.1894 25.0155 27.1739 25.007 27.1587 24.9899C27.1431 24.9729 27.1317 24.957 27.1235 24.9425C27.0317 24.6936 26.9398 24.4466 26.8487 24.201C26.7572 23.9555 26.6661 23.7084 26.5754 23.4596L26.4168 24.9814C26.4146 25.0084 26.4053 25.0299 26.3898 25.0459C26.3739 25.0618 26.3505 25.0696 26.3198 25.0696H26.0098C25.9505 25.0696 25.9213 25.0377 25.9213 24.9747L26.1631 22.6388C26.1653 22.6151 26.175 22.5944 26.192 22.577C26.209 22.5596 26.2313 22.5507 26.2583 22.5507H26.655C26.6776 22.5507 26.6968 22.5577 26.712 22.5718C26.7276 22.5858 26.7391 22.6044 26.7472 22.627C26.7935 22.757 26.8417 22.8892 26.8909 23.0229C26.9405 23.157 26.9891 23.2884 27.0365 23.4173L27.3498 24.2707L27.9509 22.6284V22.6299C27.9587 22.6029 27.9713 22.5829 27.9883 22.5699C28.0054 22.557 28.0254 22.5503 28.048 22.5503H28.4432C28.4691 22.5503 28.4909 22.5592 28.5087 22.5766C28.5261 22.594 28.5361 22.6147 28.5384 22.6384L28.7802 24.9796C28.7802 25.0092 28.7724 25.0314 28.7565 25.0466C28.7406 25.0618 28.7191 25.0696 28.6917 25.0696H28.3821C28.3524 25.0696 28.3298 25.0618 28.3139 25.0459C28.298 25.0299 28.2887 25.0084 28.2865 24.9814L28.1265 23.4596L27.5817 24.9321C27.5724 24.9492 27.5594 24.9673 27.5424 24.9862C27.5254 25.0055 27.5087 25.0151 27.4931 25.0151H27.2054V25.0155Z" fill="black"/>
</svg>
