<svg width="40" height="40" viewBox="0 0 40 40" fill="none" xmlns="http://www.w3.org/2000/svg">
<path d="M31.7768 19.9997C31.7768 26.4804 26.5035 31.7342 20.0005 31.7342C13.4965 31.7342 8.22424 26.4804 8.22424 19.9997C8.22424 13.519 13.4965 8.26489 20.0005 8.26489C26.5035 8.26526 31.7768 13.519 31.7768 19.9997Z" fill="white"/>
<path d="M30.4158 15.6843L38.4716 12.3468C36.5139 7.61981 32.7524 3.64055 27.651 1.52759L24.3169 9.58277C27.0676 10.7261 29.2717 12.9287 30.4158 15.6843Z" fill="#B2D237"/>
<path d="M9.58302 24.3135L1.5271 27.6483C3.48599 32.3768 7.24562 36.3601 12.3471 38.4713L15.6864 30.412C12.9301 29.2687 10.7241 27.0664 9.58302 24.3135Z" fill="#1383C6"/>
<path d="M8.72737 19.9988C8.72737 18.4714 9.03181 17.0143 9.5833 15.684L1.52737 12.3462C-0.430037 17.0725 -0.586704 22.548 1.52737 27.648L9.5833 24.3132C9.03218 22.9851 8.72737 21.5295 8.72737 19.9988Z" fill="#1D93D1"/>
<path d="M19.9991 31.2684C18.4714 31.2684 17.0143 30.964 15.6843 30.4121L12.3469 38.4713C17.4469 40.585 22.924 40.4317 27.6503 38.4713L24.3136 30.4121C22.9843 30.964 21.5295 31.2684 19.9991 31.2684Z" fill="#1D93D1"/>
<path d="M15.6841 9.58277L12.3471 1.52759C7.24525 3.64055 3.48599 7.61981 1.5271 12.3465L9.58302 15.6839C10.7241 12.9287 12.9301 10.7261 15.6841 9.58277Z" fill="#00AB6C"/>
<path d="M30.4158 24.3135C29.2717 27.0664 27.068 29.2687 24.3169 30.412L27.651 38.4713C32.7524 36.3601 36.5142 32.3768 38.4716 27.6483L30.4158 24.3135Z" fill="#00AB6C"/>
<path d="M38.4711 12.3462L30.4152 15.6836C30.9637 17.0121 31.2737 18.471 31.2737 19.9984C31.2737 21.5266 30.9641 22.9847 30.4152 24.3132L38.4711 27.648C40.4312 22.9221 40.5867 17.4503 38.4711 12.3462Z" fill="#8CC541"/>
<path d="M19.9991 8.72689C21.5295 8.72689 22.9843 9.03171 24.3136 9.58282L27.6503 1.52763C22.5477 -0.585701 17.0747 -0.431257 12.3469 1.52763L15.6843 9.58282C17.0147 9.03171 18.4717 8.72689 19.9991 8.72689Z" fill="#8CC541"/>
<path d="M12.3816 25.9086V21.1575H13.9742L15.0005 22.7238L15.9723 21.1575H17.5375V25.9086H15.9723V23.2356L15.1934 24.479H14.7031L13.9742 23.3927V25.9086H12.3816Z" fill="black"/>
<path d="M19.9965 25.9086L21.3458 23.723V25.9086H22.9384V21.1575H21.3458L19.9965 23.3997V21.1575H18.4025V25.9086H19.9965Z" fill="black"/>
<path d="M25.803 23.7756C26.1497 23.7756 26.5571 23.6419 26.5571 22.9393C26.5571 22.3997 26.2019 22.2656 25.803 22.2656H25.3919V23.7756H25.803ZM23.8019 25.9086V21.1575H26.0697C27.1208 21.1575 28.1504 21.6723 28.1504 22.9397C28.1504 24.3171 27.0648 24.8834 26.0697 24.8834H25.3919V25.9086H23.8019Z" fill="black"/>
<path d="M13.7777 20.4085C13.7777 19.51 14.0744 18.907 14.6688 18.294C15.9203 16.9929 17.884 16.4859 17.884 15.2485C17.884 14.773 17.4277 14.4981 16.9822 14.4981C16.1333 14.4981 15.8992 15.2063 15.8992 15.9259H13.9151C13.9151 13.7048 15.1455 12.8481 17.0877 12.8481C18.6373 12.8481 20.091 13.5255 20.091 15.2589C20.091 17.1622 17.884 17.6911 16.5996 18.6111H20.091V20.4088H13.7777V20.4085Z" fill="black"/>
<path d="M20.4884 17.0877L23.9791 12.9529H26.0384V17.2047H26.9725V18.8536H26.0384V20.4084H23.9373V18.8536H20.4884V17.0877ZM22.154 17.2051H23.9369V14.9418L22.154 17.2051Z" fill="black"/>
</svg>
