<svg width="24" height="26" viewBox="0 0 24 26" fill="none" xmlns="http://www.w3.org/2000/svg">
<path d="M23.9658 5.91004C23.7956 4.32289 23.0086 2.90281 21.7537 1.9004L21.0234 1.32262C19.9528 0.47336 18.5986 0 17.2089 0C15.3655 0 13.6426 0.807497 12.4869 2.20669L1.35544 15.7183C0.334463 16.9574 -0.133484 18.5098 0.0366783 20.09C0.206841 21.6701 0.993842 23.0972 2.25588 24.0996L2.97907 24.6774C4.05677 25.5336 5.41098 26 6.79355 26C7.00625 26 7.22604 25.9861 7.43875 25.9652C9.04111 25.7981 10.4875 25.0324 11.5014 23.8142C11.5014 23.8072 11.5085 23.8072 19.0098 14.702C20.3498 13.0801 20.0875 10.6924 18.4355 9.37671L18.0526 9.07738C17.372 8.5344 16.507 8.23507 15.6349 8.23507C14.465 8.23507 13.3732 8.74324 12.6358 9.63427L5.13446 18.7395C4.64525 19.3312 4.73742 20.2083 5.34717 20.6886C5.59532 20.8905 5.91437 20.9949 6.23343 20.9949C6.65883 20.9949 7.06297 20.807 7.33239 20.4798L14.8266 11.3815C15.0252 11.1448 15.3158 11.0056 15.6278 11.0056C15.8689 11.0056 16.0887 11.0822 16.273 11.2284L16.6559 11.5277C16.8686 11.6948 17.0033 11.9384 17.0317 12.2099C17.06 12.4814 16.982 12.739 16.8119 12.9548L9.31762 22.0461C8.70078 22.7979 7.77907 23.2225 6.79355 23.2225C6.05618 23.2225 5.33298 22.9719 4.75869 22.5124L4.0355 21.9347C3.36194 21.3987 2.94362 20.6399 2.85145 19.7906C2.75928 18.9414 3.00743 18.113 3.55337 17.4517L14.6848 3.94003C15.3017 3.18822 16.2234 2.75663 17.2089 2.75663C17.9463 2.75663 18.6695 3.00723 19.2438 3.46667L19.967 4.04444C21.3566 5.15127 21.5764 7.16305 20.4491 8.52744C20.2151 8.81285 20.1017 9.17483 20.1442 9.54378C20.1868 9.91272 20.364 10.2469 20.6618 10.4766C20.9099 10.6784 21.229 10.7829 21.548 10.7829C21.9735 10.7829 22.3776 10.5949 22.647 10.2677C23.668 9.04953 24.1359 7.49023 23.9658 5.91004Z" fill="black"/>
</svg>
