<svg width="38" height="39" viewBox="0 0 38 39" fill="none" xmlns="http://www.w3.org/2000/svg">
<path d="M25.4701 36.813L22.6361 29.944C20.14 30.8574 17.4011 30.8574 14.9051 29.944L12.0701 36.813C16.3784 38.4948 21.1617 38.4948 25.4701 36.813Z" fill="white"/>
<path d="M8.21704 23.237C7.30502 20.7297 7.30502 17.9813 8.21704 15.474L1.37904 12.631C-0.295291 16.9573 -0.295291 21.7527 1.37904 26.079L7.34104 23.602L8.21704 23.237Z" fill="white"/>
<path d="M30.008 19.356C30.0094 20.68 29.7772 21.9938 29.322 23.237L36.1611 26.079C37.836 21.7528 37.836 16.9572 36.1611 12.631L29.322 15.474C29.7771 16.7176 30.0093 18.0317 30.008 19.356Z" fill="white"/>
<path d="M18.771 8.081C20.0901 8.0788 21.3991 8.31073 22.637 8.766L25.471 1.902C21.1624 0.221759 16.3797 0.221759 12.071 1.902L12.163 2.126L14.91 8.766C16.1465 8.31154 17.4537 8.07963 18.771 8.081Z" fill="white"/>
<path d="M8.57409 24.101L1.73511 26.942C3.59272 31.185 6.97196 34.5785 11.2071 36.454L14.0421 29.584C11.6335 28.4532 9.6983 26.5127 8.57409 24.101Z" fill="white"/>
<path d="M35.8 11.77C33.9414 7.52813 30.5614 4.13629 26.326 2.263L23.5 9.125C25.9075 10.2581 27.8416 12.1994 28.966 14.611L34.218 12.428L35.8 11.77Z" fill="white"/>
<path d="M14.0421 9.125L11.2071 2.26C6.97231 4.135 3.59313 7.52775 1.73511 11.77L8.57309 14.614C9.69707 12.2008 11.6326 10.2589 14.0421 9.127V9.125Z" fill="white"/>
<path d="M23.5 29.581L26.331 36.451C30.5663 34.5764 33.9452 31.1825 35.801 26.939L34.517 26.404L28.965 24.098C27.8402 26.5082 25.9065 28.4483 23.5 29.581Z" fill="white"/>
<path d="M11.561 25.053V20.497H13.083L14.063 21.997L14.992 20.497H16.492V25.054H14.992V22.491L14.247 23.683H13.778L13.078 22.642V25.054L11.561 25.053Z" fill="white"/>
<path d="M18.837 25.053L20.127 22.953V25.053H21.649V20.497H20.127L18.837 22.648V20.497H17.314V25.054L18.837 25.053Z" fill="white"/>
<path d="M24.3842 23.008C24.7152 23.008 25.1052 22.88 25.1052 22.208C25.1052 21.69 24.7652 21.561 24.3842 21.561H23.9922V23.009L24.3842 23.008ZM22.4722 25.053V20.501H24.6392C25.6392 20.501 26.6232 20.995 26.6232 22.211C26.6285 22.4677 26.5799 22.7227 26.4805 22.9595C26.3811 23.1962 26.2331 23.4095 26.0461 23.5854C25.8591 23.7614 25.6373 23.8962 25.3949 23.981C25.1525 24.0659 24.8951 24.0989 24.6392 24.078H23.9912V25.061L22.4722 25.053Z" fill="white"/>
<path d="M12.8951 19.779C12.8856 19.3999 12.9566 19.0232 13.1035 18.6736C13.2503 18.324 13.4697 18.0095 13.7471 17.751C14.9471 16.503 16.8191 16.018 16.8191 14.833C16.8101 14.7291 16.7806 14.6281 16.7324 14.5357C16.6842 14.4433 16.6181 14.3613 16.5381 14.2945C16.4581 14.2277 16.3657 14.1773 16.2661 14.1464C16.1666 14.1154 16.0619 14.1044 15.9581 14.114C15.1471 14.114 14.9231 14.793 14.9231 15.483H13.0231C13.0231 13.353 14.1981 12.531 16.0581 12.531C17.5391 12.531 18.9281 13.181 18.9281 14.843C18.9281 16.668 16.8191 17.177 15.5911 18.057H18.9281V19.781L12.8951 19.779Z" fill="white"/>
<path d="M19.3071 16.595L22.6421 12.627H24.6101V16.704H25.5031V18.284H24.6101V19.776H22.6031V18.288H19.3071V16.595ZM20.8981 16.712H22.5981V14.541L20.8981 16.712Z" fill="white"/>
</svg>
