<svg width="1008" height="506" viewBox="0 0 1008 506" fill="none" xmlns="http://www.w3.org/2000/svg">
<path d="M935.722 275.957L935.027 269.362L932.247 268.668L933.984 267.973L932.247 264.155L931.552 265.544L927.729 263.461L927.035 258.601H932.247L933.984 261.031L941.629 254.783L943.019 253.395L947.537 246.799L944.062 241.593L943.367 237.774L947.189 237.427V234.65H947.884L949.622 237.427L952.054 234.303V238.121L949.274 238.468L952.401 246.799L964.564 245.758L968.039 247.841V254.089L971.513 257.907L974.293 258.601L973.598 257.907L976.031 257.213L975.336 258.254L979.158 259.99L979.853 263.114L981.938 262.42L982.286 264.155L984.023 260.337L983.676 264.502L986.108 265.544L986.803 262.767L985.413 262.42L990.278 262.767L986.456 259.296L988.193 258.254L985.413 257.907L991.668 253.742L988.541 250.965H991.32L993.058 247.146L997.923 247.494L996.185 244.717V242.287L1001.05 245.758V240.898L1006.96 238.121L1001.05 236.733L1001.75 234.997L994.1 225.278L985.066 224.931L984.023 227.361L983.328 225.278L984.718 223.89L981.591 222.154L980.896 224.237L976.726 223.542L979.158 224.931V230.138L981.591 231.526L979.853 234.65L980.201 231.873L975.683 228.055L973.598 218.683L974.641 217.989L971.166 213.129L968.039 212.435L971.166 217.641L964.564 213.129L966.649 211.046L961.089 209.311L962.131 208.269L961.784 206.534L959.004 204.798L954.834 204.104L954.139 200.98L950.664 199.938L949.622 196.12L944.757 193.69L942.672 192.996L932.942 184.318L919.042 176.682L900.973 177.029L886.378 172.863L883.945 173.905V178.764L881.861 181.194L884.988 181.541L887.768 189.872L880.471 195.773L870.741 187.789L869.698 181.541L867.613 178.07L861.706 183.277L850.586 181.541L844.679 178.07L834.602 179.111L827.304 184.665V181.888L817.575 177.376L819.66 169.739V166.268L812.71 156.549L786.995 156.202L773.791 159.326L769.273 156.202L772.748 152.383L767.883 147.177L762.671 147.871L759.544 143.705L751.899 142.664L754.679 138.151L758.154 139.193L756.764 133.292L754.679 131.556L703.25 119.06L701.512 121.143L703.597 124.961L694.563 135.375L695.605 139.193L694.563 141.276L696.3 146.829L692.825 145.788L683.79 153.078L669.196 143.705H665.721L664.331 149.259L657.034 147.524L651.474 136.763L647.651 145.441L647.304 152.383L642.786 161.408L640.701 156.896L634.447 154.813L628.887 143.011L627.497 143.705L626.802 138.151L632.014 132.945L631.319 132.25L632.014 128.432L629.929 124.267L631.667 115.936L623.327 106.217L616.377 104.134L613.945 106.911L596.917 97.5387L596.223 100.663L593.79 99.9685L592.4 106.217L594.485 112.812L592.748 114.895L579.543 117.324L563.906 112.465L563.558 106.564L566.338 105.522L546.184 100.663L532.979 105.175L537.844 109.341L532.284 111.423L530.547 111.076L532.979 109.341L531.242 108.646L531.937 102.398L528.462 93.7204L528.809 98.9271L526.377 101.01L519.427 98.58L518.732 95.456L519.774 93.7204L516.299 96.8444L511.435 93.7204L507.96 98.58L509.35 103.093L514.562 98.9271L516.647 101.704L509.35 106.564L505.527 104.134L507.265 106.911L506.222 108.299L496.145 112.812L488.848 112.465L488.5 113.506V116.63L491.28 118.713L486.763 116.63L483.288 118.713L493.712 103.093H499.967L513.867 82.9597L522.554 79.1414V76.0174L526.029 74.976L524.987 73.9347L530.547 70.4635L534.369 64.2154L533.326 60.05L534.369 58.6615L529.157 56.9259L526.377 51.0249L532.284 56.9259L535.064 51.7191L534.716 48.5951H532.979L530.547 40.6114L528.809 44.4297L526.724 40.9585L528.114 38.5287L517.689 28.1151L499.967 27.0738L494.755 34.7104H487.458L493.712 27.0738L494.755 22.9084L494.407 20.8257L484.678 19.4372L485.025 16.3131L475.99 21.867L486.763 11.1064L485.025 5.20535L474.948 0.345703L467.998 3.12265L457.573 18.0487L454.793 24.9911L457.921 29.8507L456.531 29.1565V32.2805L442.284 34.3632L448.191 40.6114L447.496 46.1652L444.716 43.7354L441.241 39.9171L434.986 44.4297L435.681 47.2066L428.037 49.9835L428.732 47.2066L426.994 46.8595L422.824 49.9835L425.257 44.0825L423.172 43.0412L405.45 45.471V47.9008L409.272 47.5537L408.577 50.3307L382.863 59.3557L375.565 68.7279H368.963L373.48 70.8106L370.005 72.1991L367.921 79.1414L362.708 74.976L361.318 78.7943L366.878 81.5713L362.361 86.0838L367.226 88.5136L368.963 93.0261L366.878 93.7204L367.226 96.8444L332.476 103.093L329.696 104.134L331.434 106.217L328.306 109.341L329.696 110.035L328.306 112.465L332.476 118.019L331.434 121.837L332.129 127.391L340.816 131.556L341.164 133.292L340.469 135.027L347.766 139.54L348.809 144.052L346.724 150.995L349.156 162.45V167.656L345.681 169.045L346.029 172.863L340.469 169.045L341.164 161.061L340.469 152.383L344.986 148.565L346.724 143.011L335.604 141.623L331.434 135.375L322.052 129.126L310.584 132.945L310.237 135.027L314.407 136.763L309.194 141.623L306.762 142.317L303.982 137.457L301.55 138.499L303.635 144.747L310.932 150.301L313.364 148.565L316.492 156.549L297.727 149.259L296.685 147.524L298.422 146.829V143.705L296.685 136.416L299.117 131.209L298.075 126.002L299.117 125.308L295.642 118.713L293.905 119.407L295.295 131.209L285.218 139.54L283.133 145.441L291.125 161.755L286.607 176.682L288.692 183.624L287.997 188.136L295.99 190.566L301.897 187.789L311.627 194.037L314.754 203.757L311.279 206.187L310.932 212.435L319.272 215.559L312.322 215.906L309.194 212.782L310.237 205.492L309.194 203.757L309.889 200.286L306.415 196.814L305.025 192.302L292.515 196.12L291.125 202.021L293.905 208.616L293.557 213.476L288.692 219.03L285.913 226.667L278.963 231.179L278.615 236.039L277.225 236.386L265.411 234.303L264.716 229.096L263.326 228.055L267.495 228.749L276.53 224.931L273.055 221.807L277.92 222.154L281.048 215.559L283.48 213.129V206.187L285.565 201.674V198.55L279.658 191.26L281.048 177.029L279.31 169.045L281.395 166.615L281.743 158.284L280.353 152.036L275.488 146.135L281.048 131.903L280.353 121.837L260.546 117.324L257.766 124.267L254.638 140.581L244.909 150.301L244.214 154.813H246.646L243.519 159.326L248.731 161.408L247.341 168.698L248.036 172.516L245.603 173.557L245.256 181.194L253.248 182.93L252.901 185.012L255.333 191.608L259.156 194.037L253.943 205.145L246.646 194.732L228.576 182.235L210.159 177.029L204.947 181.194L209.117 189.525L208.074 193.69L202.167 196.814L202.862 200.633L200.43 203.062L197.65 200.98L199.735 196.814L195.912 191.26L186.53 199.938L175.063 199.244L170.198 206.187L166.028 203.062L165.333 198.897L166.375 195.426L164.29 194.385L169.155 192.302L162.205 193.69L161.163 195.773L161.511 197.856L160.121 198.55L158.383 196.12L156.298 198.897L157.341 199.938L156.298 203.062L154.213 199.938L151.433 200.633L129.194 215.559L127.109 221.807V224.931L120.507 230.138L119.812 226.667L116.337 227.014L110.429 217.641L112.862 213.129L120.507 211.393L119.117 205.492L115.294 200.633L100.005 197.161L105.217 203.062L104.869 212.435L103.479 219.377L107.649 224.931L104.869 235.344L105.217 241.593L103.132 237.774L100.699 239.163L101.742 236.039L94.0971 231.873L88.5373 239.163L78.8075 245.758L79.155 249.923L85.0624 262.42L70.4677 257.907L68.3828 260.337L67.6878 258.254L69.4252 257.213L60.7379 252.353L58.3055 256.172L59.348 259.296L63.1704 264.155L66.6453 262.767L69.0778 270.75L64.5604 272.139L56.5681 268.668L52.7456 264.155L46.8383 262.767L48.2283 260.337L47.8808 256.519L44.7533 249.923L47.1858 248.535L47.5333 241.593L30.1587 223.542L32.9386 222.154L39.541 228.402L45.1008 228.749L45.4483 231.526L72.5527 238.468L79.85 235.344L87.1473 228.055L88.1898 222.154L86.4523 221.113L85.7573 214.517L79.155 206.881L70.1202 203.757L54.1356 188.484L38.846 187.789L37.8035 184.665L35.7186 186.401L36.066 184.318L30.1587 181.888L31.2012 178.764L35.7186 181.541L37.1085 178.764L29.4637 175.293L29.8112 178.07H28.7687L28.0737 180.5L23.2089 178.07V181.541L19.3865 180.5L18.6915 184.318L12.4366 190.566L9.3092 193.69L10.0042 194.037L9.3092 201.674L14.1741 206.187L18.344 214.864L13.1316 224.931L19.039 242.634L16.6065 249.923V256.519L18.6915 256.866L19.039 261.378L21.8189 264.849L19.7339 272.486L22.8614 276.999L26.6838 281.511V286.371L17.3015 300.255L3.40184 313.446L9.3092 312.405V315.529L7.91923 314.487L8.9617 317.264L16.6065 319L19.3865 321.777H12.4366L7.22425 325.248L7.57174 328.719L5.1393 332.885L0.274414 334.273L1.66438 340.521L2.70685 340.868L3.40184 343.645L4.44431 344.687L4.79181 346.769L2.70685 349.199L3.05435 349.893L5.1393 353.017L4.44431 357.183L6.18177 358.224L7.57174 361.348L7.91923 365.861L8.26672 366.555L14.1741 367.596L15.564 368.638L15.2166 370.72L20.0814 368.985L24.5988 371.762L24.2513 374.886L25.2938 376.621L24.2513 380.44L27.7262 386.688L29.8112 388.423L30.1587 390.853L32.9386 390.506L34.6761 391.2L35.0236 392.936L35.7186 393.283V394.671L32.2436 397.448L28.4212 396.407L26.6838 397.796L28.0737 399.878L29.8112 407.862L31.5487 408.903L33.9811 406.126L41.9734 405.779L45.7958 410.639V411.68L44.4058 412.375L45.1008 415.499L48.2283 416.887L50.3132 416.54L51.7032 418.623L52.0507 422.788L53.4406 424.524H56.9155L57.958 425.565H59.6955L63.8654 424.176L68.0353 428.689L70.1202 427.995L72.9002 430.077L74.9851 429.73L81.24 432.507L80.545 433.202L81.5875 435.631L80.545 437.367L78.8075 437.714L80.8925 439.45L78.8075 440.491V443.962L79.85 444.309L78.8075 449.169H75.3326L73.5951 448.128L71.8577 450.21L70.1202 450.905L69.4252 452.64V456.111L74.6376 454.723L75.6801 456.111L70.1202 458.194L70.4677 459.235L66.2978 459.582L65.9503 460.971L70.4677 464.789L66.9928 465.483L63.8654 471.037H60.3905L59.348 472.426L63.5179 477.285L65.2553 476.938L72.2052 481.104L78.8075 487.352L84.0199 486.658L90.9697 489.087L97.9195 489.435L104.522 494.294L109.039 492.906L112.167 493.6L115.294 494.988V497.418L119.464 499.848L123.981 502.972L125.024 505.402L128.846 505.749L131.974 501.237L130.931 500.195L126.066 490.823L126.414 484.228L125.719 486.311L123.634 481.451L120.507 477.98L124.676 471.732L125.371 467.913L126.066 468.608L126.761 464.442L125.719 462.707L128.151 463.054L129.889 467.219L132.669 463.401L135.449 462.359L132.669 460.624L131.974 460.277V458.888H135.449L133.016 452.64L130.931 449.863L125.719 449.169V449.863L124.676 448.822L123.634 444.656L120.507 443.615L121.896 438.755L123.981 437.02L122.591 434.937L123.286 429.73L125.719 427.995L126.414 423.829L131.974 431.119L135.101 428.689L133.016 422.788L134.754 422.441L137.881 420.705L138.229 418.275L143.441 416.193L145.873 412.722L149.696 412.375L150.391 414.11L151.781 413.763L152.476 414.457L153.866 412.027L155.603 411.68H156.646L157.688 414.11H163.595L169.503 420.705L169.85 423.482L170.893 423.135V418.97L171.935 418.623L173.673 421.747L177.148 423.135L181.665 419.317L183.402 419.664V418.623H185.835L188.267 420.358L190.352 418.623L192.785 418.275L194.522 418.623L196.26 422.441H200.082H199.735L200.43 423.829H202.167L203.904 420.705L207.032 422.441L212.244 421.4L213.982 415.846L209.812 414.804L208.769 413.069L205.989 412.375L205.642 410.986L203.904 410.292V409.598L209.464 406.473L210.159 404.738L207.727 401.961L210.159 399.531H216.067L217.109 398.49L215.024 396.754L211.202 396.407L210.854 394.324L212.939 393.63L212.592 392.936L210.159 393.283L210.854 390.506L209.812 389.465L212.939 388.423L213.287 389.465L218.847 389.118L219.542 390.159L220.237 388.423H223.017L226.144 386.341L228.576 387.382L228.924 386.341L231.704 385.299H235.179L235.874 382.869L240.739 381.828L253.943 378.704L254.638 376.274L256.376 375.927L259.156 374.192L263.326 374.886L266.453 376.621L269.58 375.233L270.97 376.274L271.665 380.787L273.055 381.828L272.708 384.258L271.665 385.994L272.708 387.382L277.92 387.035L278.268 384.952L278.963 385.299L280.353 387.382L280.005 389.465H281.743L281.048 388.076L281.743 387.729L285.565 389.812L287.997 388.423L288.345 390.506L286.607 390.853L285.565 392.936L286.26 394.324L289.387 392.936L292.862 393.63V392.242L297.032 390.506L299.812 387.382L302.245 387.035L306.762 384.605L307.457 386.341L305.372 387.382V389.118L314.059 396.754L327.611 421.4L329.001 420.011L330.739 416.887L331.781 416.54L334.561 418.623L334.214 419.317L335.604 421.747H343.249L344.291 420.358H345.681L347.071 418.97L348.461 419.664L352.978 422.788L353.673 426.606L356.801 427.995L357.148 429.383L359.233 432.16L365.488 433.896L366.531 432.16L367.921 431.466L371.395 437.02L369.31 439.797L372.09 440.491L374.175 439.103L377.303 434.59L391.897 425.912L399.195 423.482L414.137 424.871L417.959 429.036H436.029L437.419 428.342L436.724 424.871L438.114 422.441L436.376 415.499L444.716 408.209L461.396 414.804L463.133 422.094L467.651 425.565L471.82 426.953L480.508 422.788L484.33 423.829L498.577 431.119L503.442 434.59L511.435 436.326L516.647 437.367L529.504 433.549L539.234 427.301L546.184 430.425L550.701 429.73L559.736 433.549L568.076 428.342L568.771 424.871L572.593 414.457L577.458 409.945L577.11 405.432H572.593L573.288 403.349L578.5 397.796L595.18 395.366L600.392 398.837L607.69 400.225L612.555 406.821L613.25 412.375L617.072 421.052L619.504 432.854L629.582 434.59L638.269 439.45L639.659 443.615V447.433L641.396 450.557L647.651 450.905L664.331 443.615L663.288 445.698L663.983 451.946L661.203 454.723L658.076 465.483L654.254 473.814L652.516 474.856L646.261 472.773L641.049 477.98L642.439 482.145V489.087L638.616 493.6V495.683L638.964 497.071L639.659 496.724L639.311 495.336H642.439L646.261 488.393L647.651 491.17L649.389 489.782V493.6L654.949 494.641L659.813 493.6L666.068 488.393L684.833 464.789L687.96 457.847L692.825 449.863L698.385 443.615L700.818 429.036L699.427 422.441L701.512 415.499L705.335 408.209L703.597 406.126L703.945 403.697L703.597 400.572L704.987 396.754L698.733 392.242L695.258 386.688L688.308 386.341V391.547L686.223 394.324L686.57 391.547L685.18 392.936L679.62 393.977L682.053 390.853L679.968 388.423L682.053 386.341L678.926 387.382V390.506L676.493 392.242V383.217L670.238 383.564L667.111 381.481L667.458 379.745L682.053 366.208L691.435 353.712L698.733 347.811L701.512 342.257L710.2 332.885L716.107 329.76L730.354 328.719L733.829 331.843L736.262 328.372L742.864 331.149L748.076 329.066L749.466 331.149H750.856L750.509 328.719L752.594 328.025L752.246 325.595L753.636 324.901L763.713 328.372L766.493 326.984L771.358 330.455L765.103 332.885L766.493 335.314L773.791 333.579L775.876 334.62L780.393 331.149L788.385 332.19L789.775 331.496L789.428 329.76L783.868 328.025L784.91 326.636L783.868 323.859H785.258L788.038 317.958L794.64 312.405L802.633 300.255L813.405 297.131L818.965 300.255L822.44 296.784L821.05 301.991L819.312 305.115L819.66 307.198L818.965 309.281H822.44L820.702 314.487L834.602 300.95L837.034 299.908L838.424 302.338L839.814 300.255L838.424 298.867V294.354L841.552 289.148L847.111 287.412L850.586 289.495L850.239 290.536L845.374 293.66L844.679 300.255L843.289 302.338V306.156L841.552 307.892L842.594 310.322L831.822 315.876L830.779 319L822.787 327.331L809.93 344.339L804.022 347.811L800.548 347.463L801.59 350.935L800.2 356.141L794.64 360.307L792.555 374.192L792.903 382.869L800.2 420.705L808.887 411.333L810.972 400.225L817.922 397.448L819.66 398.49L819.312 389.465L825.567 383.564L829.042 384.258L832.169 381.828L829.737 373.497L831.474 368.638L834.602 365.861L833.559 364.125L837.729 362.39L835.992 365.514L838.077 368.638L839.814 365.514L839.467 361.348L836.687 359.96L836.339 355.1L839.467 347.811L835.992 346.075L833.212 348.505L832.169 346.769V342.951L837.729 332.885H839.119L841.552 323.512L844.331 321.777L845.374 323.512L847.806 321.083L850.586 323.859L851.976 319L857.189 315.529L858.231 316.223L857.884 323.859L862.749 316.223L869.698 313.446L877.343 315.529L883.251 322.124L884.641 315.876L894.37 309.975L894.023 307.892L896.108 308.586L895.76 306.504L900.973 303.727L902.71 299.908L905.143 300.603L912.092 296.784L912.787 294.007L925.644 289.148L924.255 284.288L927.035 288.453L928.424 287.412L936.764 291.578L939.892 286.371L936.764 282.205L939.197 281.858L935.722 275.957Z" fill="url(#paint0_linear)" stroke="white" stroke-width="0.25"/>
<defs>
<linearGradient id="paint0_linear" x1="46.1621" y1="510.256" x2="714.94" y2="123.722" gradientUnits="userSpaceOnUse">
<stop stop-color="#5CA3D9"/>
<stop offset="0.1233" stop-color="#549DD6"/>
<stop offset="0.6876" stop-color="#2D8ACA"/>
<stop offset="1" stop-color="#1583C6"/>
</linearGradient>
</defs>
</svg>
