<svg width="22" height="31" viewBox="0 0 22 31" fill="none" xmlns="http://www.w3.org/2000/svg">
<path d="M20.9907 11.0981C20.9907 8.44839 19.9381 5.90722 18.0645 4.0336C16.1909 2.15999 13.6497 1.10742 11 1.10742C8.35031 1.10742 5.80915 2.15999 3.93554 4.0336C2.06193 5.90722 1.00934 8.44839 1.00934 11.0981C1.00934 11.0981 0.310614 20.8652 11 30.3281C21.6894 20.8746 20.9907 11.0981 20.9907 11.0981ZM10.9981 15.3148C10.1641 15.3148 9.34884 15.0676 8.6554 14.6042C7.96195 14.1409 7.42148 13.4823 7.10233 12.7118C6.78317 11.9412 6.69966 11.0934 6.86237 10.2754C7.02507 9.45746 7.42668 8.70608 8.01641 8.11635C8.60614 7.52663 9.35749 7.12504 10.1755 6.96234C10.9934 6.79963 11.8413 6.88313 12.6118 7.20228C13.3823 7.52144 14.0409 8.06192 14.5042 8.75537C14.9676 9.44882 15.2149 10.2641 15.2149 11.0981C15.2149 11.6518 15.1058 12.2002 14.8939 12.7118C14.682 13.2234 14.3714 13.6882 13.9798 14.0798C13.5883 14.4713 13.1234 14.782 12.6118 14.9939C12.1002 15.2058 11.5519 15.3148 10.9981 15.3148V15.3148Z" stroke="black" stroke-linecap="round" stroke-linejoin="round"/>
</svg>
