<svg width="22" height="22" viewBox="0 0 22 22" fill="none" xmlns="http://www.w3.org/2000/svg">
<path d="M2.78374 1.73312L1.83715 3.28529C1.83715 3.28529 -1.75814 8.21669 5.95276 15.9761L5.98951 16.0114L6.02479 16.0481C13.7842 23.7531 18.7156 20.1637 18.7156 20.1637L20.2678 19.2171C20.4776 19.0598 20.6512 18.8591 20.7768 18.6288C20.9023 18.3985 20.9769 18.1439 20.9954 17.8823C21.014 17.6206 20.976 17.3581 20.8842 17.1124C20.7924 16.8667 20.6488 16.6436 20.4632 16.4582L18.6112 14.6062C18.2998 14.2944 17.8862 14.1054 17.4466 14.0741C17.007 14.0428 16.5708 14.1712 16.2183 14.4357L14.2472 15.6953C14.2472 15.6953 12.9243 16.4773 9.21879 12.7879C5.51327 9.09859 6.30994 7.75808 6.30994 7.75808L7.57109 5.78699C7.83529 5.43434 7.96349 4.99826 7.93217 4.55873C7.90085 4.1192 7.71211 3.7057 7.40057 3.39407L5.54856 1.54203C5.36344 1.35518 5.14022 1.21045 4.89411 1.11766C4.648 1.02488 4.38478 0.986219 4.12238 1.00435C3.85999 1.02249 3.60459 1.09698 3.37358 1.22274C3.14257 1.3485 2.94139 1.52258 2.78374 1.73312V1.73312Z" stroke="black" stroke-linecap="round" stroke-linejoin="round"/>
</svg>
