<svg width="13" height="16" viewBox="0 0 13 16" fill="none" xmlns="http://www.w3.org/2000/svg">
<path d="M12.2404 7.03811C12.3976 7.13563 12.5282 7.2759 12.619 7.4448C12.7098 7.6137 12.7576 7.8053 12.7576 8.00033C12.7576 8.19536 12.7098 8.38696 12.619 8.55586C12.5282 8.72477 12.3976 8.86503 12.2404 8.96255L1.8955 15.3726C1.73825 15.4701 1.55986 15.5214 1.37827 15.5214C1.19668 15.5214 1.01829 15.4701 0.861031 15.3726C0.70377 15.275 0.573177 15.1348 0.482381 14.9659C0.391583 14.797 0.34378 14.6054 0.343776 14.4103V1.59033C0.34378 1.39529 0.391583 1.20369 0.482381 1.03479C0.573177 0.865879 0.70377 0.725619 0.861031 0.628102C1.01829 0.530585 1.19668 0.479247 1.37827 0.479248C1.55986 0.479249 1.73825 0.53059 1.8955 0.628109L12.2404 7.03811Z" fill="#00AB6C"/>
</svg>
