<svg width="12" height="12" viewBox="0 0 12 12" fill="none" xmlns="http://www.w3.org/2000/svg">
<path d="M8 10.5C9.7635 9.7265 10.9995 8.0455 10.9995 6C10.9995 3.9545 9.7635 2.2735 8 1.5V2.5C9.1935 3.193 9.9995 4.5235 9.9995 6C9.9995 7.4765 9.1935 8.807 8 9.5V10.5Z" fill="#00AB6C"/>
<path d="M8 3.50016V8.50016C8.6125 7.95016 9 6.88566 9 6.00016C9 5.11466 8.6125 4.05016 8 3.50016ZM2 8.50016H3.3485L7 10.9342V1.06616L3.3485 3.50016H2C1.4485 3.50016 1 3.94866 1 4.50016V7.50016C1 8.05166 1.4485 8.50016 2 8.50016Z" fill="#00AB6C"/>
</svg>
